<?xml version="1.0" standalone="no"?>
<!DOCTYPE svg PUBLIC "-//W3C//DTD SVG 1.1//EN" "http://www.w3.org/Graphics/SVG/1.1/DTD/svg11.dtd" >
<!--
2013-9-30: Created.
-->
<svg>
<metadata>
Created by iconfont
</metadata>
<defs>

<font id="iconfont" horiz-adv-x="1024" >
  <font-face
    font-family="iconfont"
    font-weight="500"
    font-stretch="normal"
    units-per-em="1024"
    ascent="896"
    descent="-128"
  />
    <missing-glyph />
    
    <glyph glyph-name="guanbi" unicode="&#59161;" d="M560.31838608 376.00487137000005L815.11965943 630.80614472c12.86172866 12.86172866 12.86172866 34.06620026-1e-8 46.92792891l-1.39045715 1.39045716c-12.86172866 12.86172866-34.06620026 12.86172866-46.92792893 0L512 423.97564316 257.19872666 679.12453079c-12.86172866 12.86172866-34.06620026 12.86172866-46.92792893 0l-1.39045715-1.39045716c-13.20934297-12.86172866-13.20934297-34.06620026 0-46.92792892l254.80127334-254.80127334L208.88034057 121.20359801999996c-12.86172866-12.86172866-12.86172866-34.06620026 1e-8-46.92792892l1.39045715-1.39045716c12.86172866-12.86172866 34.06620026-12.86172866 46.92792893 0L512 327.68648528000006 766.80127334 72.88521193999998c12.86172866-12.86172866 34.06620026-12.86172866 46.92792893 0l1.39045715 1.39045716c12.86172866 12.86172866 12.86172866 34.06620026 0 46.92792892L560.31838608 376.00487137000005z"  horiz-adv-x="1024" />

    
    <glyph glyph-name="tanhao" unicode="&#58922;" d="M581.38670875 754.78857422C376.62016702 754.78857422 210.6003071 588.76943851 210.6003071 384.00217258 210.6003071 179.23056149 376.61871862 13.211425780000013 581.38670875 13.211425780000013c204.7708869 0 370.79147101 166.01913571 370.79147099 370.79074681C952.17817974 588.76871431 786.15759564 754.78857422 581.38670875 754.78857422z m-1e-8-691.41206145c-177.06820071 0-320.57351768 143.55383814-320.57351769 320.62565982 0 177.06892491 143.54876875 320.57424188 320.57279349 320.57424188 177.07327009 0 320.57931126-143.54876875 320.57931125-320.57424188 0-177.07182168-143.50604117-320.62493562-320.57858705-320.62493563z m0 0M544.71412552 179.54486273999999c-9.92583632 9.92583632-14.93437886 22.15316891-14.93437887 36.6776526 0 14.07693029 5.05127013 26.12031698 15.24795592 36.04615331 10.14961302 9.92438794 22.28569686 14.88513351 36.35900618 14.88513351 14.07837868 0 26.21446252-4.96074557 36.36407553-14.92858529 10.14888883-9.92583632 15.20450414-21.97211981 15.20450414-36.04542911 0-14.52882887-4.96509075-26.70908869-14.93365469-36.6776526-9.92583632-9.97363329-22.15316891-14.93293047-36.67837678-14.93293046-14.43323493 0.08980037-26.66129171 5.05054594-36.62985564 14.97565804z m-5.59803844 159.79394318c0-12.45038509 3.8382411-22.64707088 11.50458456-30.54153622 7.67141283-7.89518952 17.72977709-11.81888581 30.13815879-11.81888581 12.45110929 0 22.60072231 3.92369628 30.45246005 11.81888581 7.84739256 7.89446533 11.81888581 18.04407835 11.81888581 30.54153622V561.65552401c0 12.45617866-3.92369628 22.51381874-11.81888581 30.1808864-7.85173774 7.67141283-18.00135077 11.50530875-30.45246005 11.50530874-12.00355589 0-21.92504704-3.92442048-29.81951236-11.8188858-7.85246194-7.84739256-11.82250679-17.86375343-11.82250679-29.86730934V339.33880592z m0 0"  horiz-adv-x="1217" />

    
    <glyph glyph-name="geci" unicode="&#59151;" d="M727.25298854-54.421412239999995H296.74701146C246.75276911-54.421412239999995 206.4796294-14.148272539999994 206.4796294 35.84596981000004V466.3519469C206.4796294 516.34618925 246.75276911 556.6193289600001 296.74701146 556.6193289600001h430.50597708c49.99424236 0 90.26738206-40.27313971 90.26738206-90.26738206v-430.50597709c0-49.99424236-40.27313971-90.26738206-90.26738206-90.26738205zM296.74701146 514.9574601300001c-27.08021456 0-48.60551323-21.52529866-48.60551324-48.60551323v-430.50597709c0-27.08021456 21.52529866-48.60551323 48.60551324-48.60551324h430.50597708c27.08021456 0 48.60551323 21.52529866 48.60551324 48.60551324V466.3519469c0 27.08021456-21.52529866 48.60551323-48.60551324 48.60551323H296.74701146zM550.19004631 369.14091984000004h159.70383032c13.19292515 0 24.30275692-11.10983178 24.30275633-24.30275693S723.08680177 320.53540599999997 709.89387663 320.53540599999997h-159.70383031c-13.19292515 0-24.30275692 11.10983178-24.30275692 24.30275691s11.10983178 24.30275692 24.30275692 24.30275692zM550.19004631 264.98624775999997h159.70383032c13.19292515 0 24.30275692-11.10983178 24.30275633-24.30275632S723.08680177 216.38073454000005 709.89387663 216.38073454000005h-159.70383031c-13.19292515 0-24.30275692 11.10983178-24.30275692 24.3027569s11.10983178 24.30275692 24.30275692 24.30275632zM550.19004631 160.83157630000005h159.70383032c13.19292515 0 24.30275692-11.10983178 24.30275633-24.30275692S723.08680177 112.22606245999998 709.89387663 112.22606245999998h-159.70383031c-13.19292515 0-24.30275692 11.10983178-24.30275692 24.30275692s11.10983178 24.30275692 24.30275692 24.30275692zM571.02098073 480.23923631H532.83093442c-49.99424236 0-90.26738206-40.27313971-90.26738208-90.26738206v-184.00658723c-15.97038279 11.10983178-34.71822382 17.3591119-55.54915822 17.35911192-53.46606486 0-97.21102706-43.74496221-97.21102708-97.21102648s43.74496221-97.21102706 97.21102708-97.21102706 97.21102706 43.74496221 97.21102646 97.21102706V389.97185426c0 27.08021456 21.52529866 48.60551323 48.60551384 48.60551321h38.19004631c11.80419603 0 20.83093442 9.02673839 20.83093443 20.83093441s-9.02673839 20.83093442-20.83093443 20.83093442zM387.01439412 70.56419363999998c-30.55203706 0-55.54915823 24.99712118-55.54915884 55.54915882s24.99712118 55.54915823 55.54915884 55.54915824 55.54915823-24.99712118 55.54915823-55.54915824-24.99712118-55.54915823-55.54915823-55.54915882z"  horiz-adv-x="1024" />

    
    <glyph glyph-name="shiting" unicode="&#59298;" d="M373.529 185.19400001999998A27.55 27.55 0 0 1 344.7 156.37000002000002v-120.219a28.883 28.883 0 0 1 14.084-25.956 28.87 28.87 0 1 1 43.613 25.956V156.37000002000002c-0.05 15.915-12.953 28.799-28.868 28.824z m280.512 0a27.567 27.567 0 0 1-20.788-8.036 27.557 27.557 0 0 1-8.036-20.788v-120.219a28.868 28.868 0 0 1 43.612-25.956 28.88 28.88 0 0 1 14.084 25.956V156.37000002000002c-0.051 15.915-12.956 28.799-28.872 28.824z m-140.259-40.071a27.544 27.544 0 0 1-20.786-8.039 27.543 27.543 0 0 1-8.039-20.785v-40.075a28.867 28.867 0 0 1 14.084-25.953 28.87 28.87 0 0 1 29.532 0 28.867 28.867 0 0 1 14.084 25.953v40.075c-0.025 15.925-12.943 28.824-28.875 28.824z m289.35 120.016v31.514a285.12 285.12 0 0 1-83.493 205.841 285.105 285.105 0 0 1-205.856 83.458c-162.205 0-289.3-127.095-289.3-289.299v-31.514c-91.239-5.175-161.867-81.92-159.489-173.275 2.375-91.356 76.893-164.303 168.28-164.727h20.034a27.583 27.583 0 0 1 20.819 8.052 27.587 27.587 0 0 1 8.053 20.816V296.65200001999995c0 132.06 99.59 231.603 231.604 231.603 132.016 0 231.653-99.59 231.653-231.603v-340.647a27.596 27.596 0 0 1 8.036-20.801 27.586 27.586 0 0 1 20.788-8.067h20.038c91.394 0.401 165.933 73.342 168.32 164.704 2.387 91.361-68.241 168.123-159.487 173.298z"  horiz-adv-x="1024" />

    
    <glyph glyph-name="add" unicode="&#58916;" d="M808.407 440.32v-112.64c0-8.479-6.871-15.36-15.36-15.36h-208.21v-208.21c0-8.489-6.881-15.36-15.36-15.36h-112.64c-8.479 0-15.36 6.871-15.36 15.36V312.32000000000005h-208.21c-8.489 0-15.36 6.881-15.36 15.36V440.32c0 8.479 6.871 15.36 15.36 15.36h208.21V663.89c0 8.489 6.881 15.36 15.36 15.36h112.64c8.479 0 15.36-6.871 15.36-15.36v-208.21h208.21c8.489 0 15.36-6.881 15.36-15.36z"  horiz-adv-x="1024" />

    
    <glyph glyph-name="xindong" unicode="&#58887;" d="M625.03612087 171.74391465999997c-42.37023763-37.54484622-83.27441067-73.79596325-118.99881244-109.31526164-37.45503763 37.2450797-80.20028682 74.82876208-124.5184 113.72559172-121.667584 106.80183467-259.54683259 227.84925392-258.86477273 327.32076562 0.93692208 133.52353185 59.44115199 213.23472592 156.56307673 213.23472593 63.23495822 0 125.49537184-34.41489541 162.45888948-89.80616533l65.48745482-98.11467379 63.26893984 99.57831112c24.65731318 38.68444445 64.01168118 67.48266192 107.56884861 80.73185659l2e-8 79.35317333c-67.95355022-14.31597511-132.29412503-55.74443615-172.41065247-118.87744947-52.91910637 79.29856-141.25799348 123.99289837-226.37469393 123.99289836-119.07163023 0-231.99622637-87.36434254-233.38340503-289.54897066C44.44056057 303.56593778 374.12547673 112.75180562000003 506.11255347-51.395242680000024c125.67620267 157.45388089 458.36970667 357.04983703 459.23017006 555.52561304l-76.95261392 0C887.75416768 404.65885866 742.16594368 275.61604739999996 625.03612087 171.74391465999997L625.03612087 171.74391465999997zM625.03612087 171.74391465999997M852.53918455 694.7747395700001L852.53918455 798.85344441l-52.02410889 0 0-104.07870484L696.43719481 694.7747395700001l0-52.01339722 104.07870483 0L800.51589964 538.70735676l52.02410889 0L852.54000853 642.76134235l104.02926636 1e-8 1e-8 52.01339721L852.53918455 694.7747395700001zM852.53918455 694.7747395700001"  horiz-adv-x="1024" />

    
    <glyph glyph-name="pinglun" unicode="&#59034;" d="M426.70374916-94.47920764000003a18.40021893 18.40021893 0 0 0-13.46244644 5.85159538c-6.91066646 7.44932051-6.49772004 19.06262719 0.93336284 25.9908789l96.92779453 90.1786592c21.73700931 20.1933447 50.0251474 31.32205787 79.67783306 31.32205788h141.89141651c28.37802284 0 51.46134138 23.08331917 51.46134137 51.46134139V417.56794777c0 28.37802284-23.08331917 51.47957904-51.46134137 51.47957905H291.32763921c-28.37802284 0-51.46134138-23.10090503-51.46134139-51.47957905v-307.24262266c0-28.37802284 23.08331917-51.46134138 51.46134139-51.46134139H377.95196228c10.15952617 0 18.38067898-8.22115282 18.38067899-18.38002784s-8.22115282-18.38067898-18.38067899-18.38067899H291.32763921c-48.64301463 0-88.22204823 39.57903358-88.22204822 88.22204822V417.56794777c0 48.66125166 39.57903358 88.24028587 88.22204822 88.24028587h441.34407045c48.64301463 0 88.22204823-39.57903358 88.2220482-88.24028587v-307.24262266c0-48.64301463-39.57903358-88.22204823-88.2220482-88.22204823H590.78029315c-20.33663822 0-39.74056475-7.62843757-54.63855466-21.48559338L439.23218162-89.56097571999999c-3.55368502-3.28468324-8.04138398-4.91823191-12.52843246-4.91823192zM373.07606722 255.25000896999995m-40.42967804 0a40.42967742 40.42967742 0 1 1 80.85935544 0 40.42967742 40.42967742 0 1 1-80.85935544 0ZM520.96497779 255.25000896999995m-40.42967804 0a40.42967742 40.42967742 0 1 1 80.85935546 0 40.42967742 40.42967742 0 1 1-80.85935544 0ZM668.85388773 255.25000896999995m-40.42967739 0a40.42967742 40.42967742 0 1 1 80.85935545 0 40.42967742 40.42967742 0 1 1-80.85935545 0Z"  horiz-adv-x="1024" />

    
    <glyph glyph-name="remind" unicode="&#58940;" d="M951.686 192.68933333999996H794.6v147.042a9.54 9.54 0 0 1-9.81 9.18h-39.204a9.54 9.54 0 0 1-9.81-9.18v-147.042h-157.032a9.54 9.54 0 0 1-9.81-9.198v-36.738a9.54 9.54 0 0 1 9.81-9.198h157.032v-147.042a9.54 9.54 0 0 1 9.81-9.18h39.258a9.54 9.54 0 0 1 9.81 9.18v147.042h157.032a9.54 9.54 0 0 1 9.81 9.198v36.756a9.54 9.54 0 0 1-9.81 9.198zM338.768 646.1993333400001a226.314 226.314 0 0 0 152.136-57.906l20.61-18.846 20.61 18.846a226.314 226.314 0 0 0 152.136 57.888c120.222 0 218.376-91.89 218.376-204.48a153.162 153.162 0 0 0-9.81-51.462 53.244 53.244 0 0 1-2.934-12.87 28.638 28.638 0 0 1 29.448-27.576 36.18 36.18 0 0 1 28.944 22.518A244.638 244.638 0 0 1 962 441.73733334C962 585.0893333399999 837.8 701.33333334 684.8 701.33333334A287.118 287.118 0 0 1 512 644.83133334 287.082 287.082 0 0 1 339.2 701.33333334C186.2 701.33333334 62 585.0893333399999 62 441.73733334c0-182.88 319.464-395.154 416.628-455.4a7.056 7.056 0 0 1 1.476-0.918 55.188 55.188 0 0 1 15.21-4.14 28.638 28.638 0 0 1 29.448 27.576 26.334 26.334 0 0 1-13.734 22.968c-122.184 73.512-391.104 264.6-391.104 409.86C120.392 554.30933334 218.6 646.1993333400001 338.768 646.1993333400001z"  horiz-adv-x="1024" />

    
    <glyph glyph-name="love" unicode="&#58935;" d="M195.64182301-80.41163661999997c-4.95407559 0-9.89301533 1.53570531-14.07167034 4.57102222-7.71927609 5.60840931-11.36934115 15.26972985-9.28874609 24.58176171l66.21928107 296.4574629L10.65164003 446.11285789c-7.15692146 6.31164359-9.88253639 16.27102322-6.93454165 25.34670336 2.94799474 9.07451619 11.00491662 15.53402425 20.50439965 16.43402467l302.40235406 28.67658752L447.31700565 795.29891499c3.79210866 8.75666318 12.42302805 14.42445085 21.96559076 14.42445085 9.54023367 0 18.17231701-5.6677888 21.96209778-14.42445085l120.69431751-278.72757874 302.40235406-28.67658752c9.49948302-0.90000043 17.55873394-7.35950848 20.50439965-16.43402467 2.94799474-9.07568014 0.22237981-19.03622371-6.93221263-25.34670336L689.44846279 235.83884288000002c-9.91746503-8.74269127-25.04165831-7.79262635-33.78434958 2.12250966-8.74152733 9.91513714-7.79262635 25.04049323 2.12250965 33.7808566l197.00105103 173.71398599-261.45293312 24.79366258c-8.68796985 0.82315605-16.23725853 6.30931456-19.70452936 14.31733589l-104.34994403 240.98462606L364.93148843 484.56719474c-3.46727083-8.00802133-11.01772459-13.49417984-19.70336541-14.31733589l-261.45293312-24.79366258L280.77507811 271.74220914c6.54683136-5.77141077 9.43195477-14.65032477 7.52833195-23.1683072L231.04920007-7.743325300000038l152.5191589 90.14321608c11.37865501 6.72613262 26.05692359 2.95498069 32.78422016-8.42367432 6.72613262-11.37982009 2.95381675-26.05925149-8.42600334-32.78422016L207.81802155-77.08175359999996C204.05036259-79.30904916999998 199.84027079-80.41163661999997 195.64182301-80.41163661999997zM746.59089977-78.54177962000006L543.49126997 124.53339932999995 577.33965597 158.38294926000003 746.59089977-10.847336670000004 983.53542144 226.07389923999995 1017.38264235 192.22085632000005Z"  horiz-adv-x="1024" />

    
    <glyph glyph-name="ding" unicode="&#58886;" d="M731.5796-95.1336H445.7192c-31.5036 0-67.008 6.7308-92.6556 17.5692-10.5312 4.4772-20.1216 9.174-27.1224 12.6024-1.62 0.7932-3.4068 1.6692-5.0364 2.454-1.2036-0.9156-2.5248-1.9692-3.6468-2.8632-2.0316-1.6212-4.3356-3.456-6.8736-5.322-16.1484-11.9328-34.1688-23.1048-56.2188-23.844a70.824 70.824 0 0 0-0.1224-0.0036c-5.7192-0.156-15.4476-0.2412-27.3924-0.2412-20.4708 0-47.8824 0.2208-49.5156 0.234-33.2304 0.018-59.6772 10.4256-78.6132 30.9324-17.4228 18.87-27.5508 45.6-30.1044 79.446L32.9528 389.6772a19.4436 19.4436 0 0 0-0.0864 1.8312C32.84 426.4788 43.6268 458.376 63.2408 481.3248c20.2764 23.7252 48.738 36.792 80.1408 36.792h136.662c18.8976 0 49.7376 6.1608 89.3412 35.5116 27.9132 20.6856 44.9772 41.6736 49.056 48.8448 12.9936 30.4536 24.5736 64.7772 24.5736 144.8484 0 9.7416 0 39.384 12.4104 65.6508C466.2368 835.8552 489.6056 863.1336 539.5388 863.1336c16.6716 0 32.7756-4.0836 47.868-12.138 18.8748-10.074 35.4384-26.1048 49.2288-47.6496 23.1132-36.0996 37.5276-88.0788 40.59-146.3628 2.4924-47.4564-2.6796-95.646-14.6628-138.4908h178.68c41.7096 0 78.0588-10.38 105.1164-30.018 27.936-20.2752 43.752-49.1856 44.5332-81.4056 0.0048-0.1572 0.006-0.3156 0.006-0.474 0-25.0008-10.1184-54.7668-23.6412-74.4564 15.6948-17.778 23.8764-42.1176 23.8764-71.604 0.0648-34.6044-23.9604-66.6696-47.9988-83.6976 5.7312-13.4568 8.4816-28.9644 8.4816-39.6768 0-38.6724-23.3496-69.774-63.6336-86.412 3.5016-9.3336 4.9716-18.9588 4.9716-30.582 0-36.6168-14.9748-66.4668-43.3044-86.3244-27.4272-19.2276-67.152-28.9752-118.0704-28.9752z m-410.7336 73.2384c5.9772 0 10.4172-2.1732 22.2768-7.9824 6.9744-3.4152 15.6516-7.6644 25.1844-11.7168 17.028-7.1952 47.5956-14.4732 77.4108-14.4732h285.8616c42.7368 0 74.9184 7.368 95.6472 21.8976 17.94 12.5748 26.6616 30.348 26.6616 54.3336 0 12.6936-2.2068 19.2636-10.2684 30.564-3.7728 5.2872-4.6692 12.1056-2.3916 18.1884s7.428 10.6368 13.746 12.15c17.3112 4.1448 57.576 17.9076 57.576 56.0916 0 11.6904-5.4984 27.36-8.9256 30.9912a19.5312 19.5312 0 0 0 6.3972 34.9056c10.83 2.7684 42.0984 29.1024 42.0456 57.4428 0 25.4976-7.9236 43.638-23.5476 53.9508a19.536 19.536 0 0 0 1.0188 33.234c6.456 4.4988 22.1976 32.5344 22.2924 58.674-0.5592 19.95-10.3824 37.41-28.4208 50.5008-20.052 14.5536-49.2336 22.5684-82.17 22.5684H635.7704a19.5324 19.5324 0 0 0-18.336 26.2656c16.1448 43.9608 23.5248 96.9624 20.7768 149.2416-2.712 51.6312-14.9568 96.858-34.4772 127.3488-22.1088 34.536-47.1132 41.7852-64.1964 41.7852-24.666 0-57.4584-7.956-57.4584-76.746 0-88.134-13.8744-127.8936-28.0848-161.0652a19.176 19.176 0 0 0-0.6624-1.392c-7.5456-14.3616-30.8136-40.4844-60.6864-62.6232-26.5872-19.704-67.704-43.1904-112.602-43.1904H143.3816c-20.0808 0-37.5252-7.9908-50.4432-23.1072-13.4088-15.6888-20.8524-38.2188-21.0048-63.5208l35.3952-373.0872c0.012-0.1308 0.024-0.2628 0.0324-0.3936 1.8564-24.93 8.5392-43.7892 19.8648-56.0556 11.412-12.36 27.7668-18.3684 49.998-18.3684h0.162c0.282-0.0024 28.4292-0.234 49.266-0.234 11.55 0 20.8692 0.0792 26.256 0.2256 11.9316 0.4224 23.9604 8.6064 34.2984 16.2456 1.9632 1.4424 3.864 2.9592 5.7036 4.4244 7.6008 6.0588 16.2168 12.9264 27.936 12.9264zM314.4356-59.58960000000002c-11.2668 0-20.4 9.1332-20.4 20.4V492.216c0 11.2668 9.1332 20.4 20.4 20.4s20.4-9.1332 20.4-20.4v-531.4068c0-11.2656-9.1332-20.3988-20.4-20.3988z"  horiz-adv-x="1024" />

    
    <glyph glyph-name="cai" unicode="&#59873;" d="M292.4204 863.13359999L578.2808 863.1336c31.5036 0 67.008-6.7308 92.6556-17.5692 10.53119999-4.4772 20.1216-9.174 27.12239999-12.6024 1.62-0.79319999 3.4068-1.6692 5.03640001-2.454 1.2036 0.9156 2.5248 1.9692 3.6468 2.8632 2.0316 1.6212 4.3356 3.45600001 6.8736 5.322 16.1484 11.93279999 34.1688 23.1048 56.2188 23.844a70.824 70.824 0 0 0 0.1224 0.0036c5.7192 0.156 15.4476 0.2412 27.39240001 0.2412 20.47080001 0 47.8824-0.2208 49.51559999-0.234 33.2304-0.018 59.6772-10.4256 78.61320001-30.9324 17.4228-18.87 27.5508-45.6 30.10439999-79.446L991.0472 378.32280000000003a19.4436 19.4436 0 0 0 0.0864-1.8312C991.16 341.5212 980.3732 309.624 960.7592 286.6752c-20.2764-23.7252-48.738-36.792-80.1408-36.792l-136.662 0c-18.8976 0-49.7376-6.1608-89.3412-35.5116-27.9132-20.6856-44.9772-41.67360001-49.056-48.8448-12.9936-30.4536-24.5736-64.7772-24.5736-144.8484 0-9.7416 0-39.384-12.4104-65.6508C557.76319999-67.85519999999997 534.3944-95.13359999 484.4612-95.1336c-16.6716 0-32.7756 4.0836-47.868 12.138-18.8748 10.074-35.4384 26.1048-49.2288 47.6496-23.1132 36.0996-37.5276 88.0788-40.59000001 146.3628-2.4924 47.4564 2.6796 95.646 14.66280001 138.4908l-178.68 0c-41.7096 0-78.0588 10.38-105.1164 30.018-27.936 20.2752-43.752 49.1856-44.53319999 81.4056-0.0048 0.1572-0.006 0.3156-0.00600001 0.474 0 25.00080001 10.1184 54.7668 23.6412 74.4564-15.6948 17.77800001-23.8764 42.1176-23.8764 71.604-0.0648 34.6044 23.9604 66.6696 47.9988 83.6976-5.7312 13.4568-8.4816 28.9644-8.4816 39.6768 0 38.67239999 23.3496 69.774 63.6336 86.41199999-3.5016 9.3336-4.9716 18.9588-4.9716 30.58200001 0 36.61680001 14.9748 66.4668 43.3044 86.3244 27.42719999 19.2276 67.152 28.97520001 118.0704 28.97519999z m410.7336-73.23839999c-5.9772 0-10.4172 2.1732-22.2768 7.9824-6.9744 3.41519999-15.6516 7.6644-25.1844 11.7168-17.028 7.1952-47.5956 14.4732-77.4108 14.4732l-285.8616 0c-42.73680001 0-74.9184-7.368-95.6472-21.8976-17.94-12.5748-26.6616-30.348-26.6616-54.3336 0-12.6936 2.20679999-19.2636 10.2684-30.564 3.7728-5.2872 4.6692-12.1056 2.3916-18.1884s-7.428-10.6368-13.746-12.15c-17.3112-4.1448-57.576-17.9076-57.576-56.0916 0-11.69039999 5.4984-27.36 8.9256-30.9912a19.5312 19.5312 0 0 0-6.39720001-34.9056c-10.83-2.7684-42.0984-29.1024-42.04559999-57.44279999 0-25.49759999 7.9236-43.638 23.54760001-53.95080001a19.536 19.536 0 0 0-1.01880001-33.234c-6.456-4.4988-22.1976-32.5344-22.2924-58.674 0.5592-19.95 10.3824-37.41 28.42079999-50.5008 20.05200001-14.5536 49.2336-22.5684 82.17000001-22.56840001L388.2296 288.57479999a19.5324 19.5324 0 0 0 18.336-26.26559999c-16.1448-43.96080001-23.52480001-96.9624-20.7768-149.2416 2.712-51.6312 14.9568-96.858 34.4772-127.34879999 22.1088-34.536 47.1132-41.7852 64.1964-41.78520001 24.66599999 0 57.45840001 7.956 57.4584 76.746 0 88.134 13.8744 127.89360001 28.0848 161.0652a19.176 19.176 0 0 0 0.6624 1.392c7.5456 14.3616 30.8136 40.4844 60.6864 62.62319999 26.5872 19.704 67.704 43.1904 112.602 43.19040001L880.6184 288.95039999999995c20.0808 0 37.5252 7.9908 50.4432 23.1072 13.4088 15.6888 20.8524 38.21879999 21.0048 63.5208l-35.39519999 373.0872c-0.012 0.1308-0.024 0.2628-0.0324 0.3936-1.85639999 24.93-8.5392 43.7892-19.86480001 56.0556-11.412 12.36-27.7668 18.3684-49.998 18.3684l-0.162 0c-0.282 0.0024-28.4292 0.234-49.266 0.234-11.55 0-20.8692-0.0792-26.25599999-0.2256-11.9316-0.42239999-23.9604-8.6064-34.29840001-16.2456-1.9632-1.4424-3.864-2.9592-5.7036-4.4244-7.6008-6.0588-16.2168-12.92640001-27.936-12.9264zM709.5644 827.58959999c11.2668 0 20.4-9.1332 20.4-20.39999999L729.9644 275.784c0-11.2668-9.1332-20.4-20.4-20.4s-20.4 9.1332-20.4 20.4l0 531.4068c0 11.26559999 9.1332 20.3988 20.4 20.39879999z"  horiz-adv-x="1024" />

    
    <glyph glyph-name="xiangji" unicode="&#58951;" d="M904.72727281-21.81818155999997H119.27272719c-48 0-87.27272719 41.45454563-87.27272719 91.63636312V552c0 50.18181844 39.27272719 91.63636406 87.27272719 91.63636406h150.54545437c21.81818156 54.54545437 56.72727281 113.45454562 106.90909125 113.45454469h270.54545438c52.36363594 0 85.09090875-56.72727281 106.90909125-113.45454469H904.72727281c48 0 87.27272719-41.45454563 87.27272719-91.63636406v-482.18181844c0-50.18181844-39.27272719-91.63636406-87.27272719-91.63636312zM119.27272719 584.7272728099999c-15.27272719 0-28.36363594-15.27272719-28.36363594-32.72727281v-482.18181844c0-17.45454563 13.09090875-32.72727281 28.36363594-32.72727281h785.45454562c15.27272719 0 28.36363594 15.27272719 28.36363594 32.72727281V552c0 17.45454563-13.09090875 32.72727281-28.36363594 32.72727281h-170.18181843c-13.09090875 0-24 8.72727281-28.36363594 21.81818156-19.63636406 63.27272719-45.81818156 91.63636406-56.72727281 91.63636407H376.72727281c-8.72727281 0-34.90909125-28.36363594-58.90909125-93.8181825-4.36363594-10.90909125-15.27272719-19.63636406-28.36363593-19.63636313H119.27272719z m663.27272718-98.18181843c-17.45454563 0-30.54545437 13.09090875-30.54545437 30.54545437s13.09090875 30.54545437 30.54545437 30.54545531 30.54545437-13.09090875 30.54545438-30.54545531-15.27272719-30.54545437-30.54545438-30.54545437M512 157.09090875000004c-98.18181844 0-178.90909125 80.72727281-178.90909125 178.90909125S413.81818156 514.9090912500001 512 514.9090912500001s178.90909125-80.72727281 178.90909125-178.90909125-80.72727281-178.90909125-178.90909125-178.90909125z m0 301.09090969c-65.45454562 0-120-54.54545437-120-120s54.54545437-120 120-120 120 54.54545437 120 120-54.54545437 120-120 120z"  horiz-adv-x="1024" />

    
    <glyph glyph-name="xinwen" unicode="&#58890;" d="M858.66666688 597.3333337500001h-53.33333344V757.33333312a106.77333375 106.77333375 0 0 1-106.66666688 106.66666688H165.33333312a106.77333375 106.77333375 0 0 1-106.66666687-106.66666688v-746.66666624a106.77333375 106.77333375 0 0 1 106.66666687-106.66666688h693.33333376a106.77333375 106.77333375 0 0 1 106.66666687 106.66666688V490.66666688a106.77333375 106.77333375 0 0 1-106.66666687 106.66666687zM111.99999969 10.66666687999998V757.33333312c0 29.44000031 23.89333313 53.33333344 53.33333344 53.33333344h533.33333343c29.44000031 0 53.33333344-23.89333313 53.33333344-53.33333344v-799.99999968H165.33333312c-29.44000031 0-53.33333344 23.89333313-53.33333343 53.33333343z m800.00000062 0c0-29.44000031-23.89333313-53.33333344-53.33333344-53.33333344h-53.33333343V544.00000031h53.33333343c29.44000031 0 53.33333344-23.89333313 53.33333344-53.33333344v-479.99999999zM245.33333375 546.0266662500001c3.52000031 0 6.93333375 1.44 9.43999969 4.00000031a13.75999969 13.75999969 0 0 1 3.89333343 9.6V645.43999969l60.90666657-93.33333281a13.27999969 13.27999969 0 0 1 14.93333343-5.44000032 13.60000031 13.60000031 0 0 1 9.49333313 13.06666688v130.66666687A13.49333344 13.49333344 0 0 1 330.66666688 703.99999969a13.49333344 13.49333344 0 0 1-13.33333313-13.59999938v-85.76000062l-60.9066675 93.33333375a13.17333375 13.17333375 0 0 1-14.9333325 5.44000031 13.60000031 13.60000031 0 0 1-9.49333406-13.01333344v-130.72000031c0-3.62666625 1.38666656-7.09333313 3.89333343-9.65333344 2.50666688-2.56000031 5.86666687-4.00000031 9.44000063-4.00000031z m159.99999937 0h85.33333313c7.36000031 0 13.33333313 6.13333313 13.33333406 13.65333375a13.49333344 13.49333344 0 0 1-13.33333406 13.60000031H418.66666625v38.13333282H490.66666625c4.8 0 9.17333344 2.56000031 11.52 6.77333343a13.86666656 13.86666656 0 0 1 0 13.65333375 13.33333313 13.33333313 0 0 1-11.52 6.77333344H418.66666625V676.8H490.66666625c7.36000031 0 13.33333313 6.13333313 13.33333406 13.65333375A13.49333344 13.49333344 0 0 1 490.66666625 703.99999969H405.33333312a13.17333375 13.17333375 0 0 1-9.43999968-3.99999938 13.75999969 13.75999969 0 0 1-3.89333344-9.6v-130.72000031c0-3.62666625 1.38666656-7.09333313 3.89333344-9.65333344 2.50666688-2.56000031 5.86666687-4.00000031 9.43999968-4.00000031z m156.05333344 0.05333344c6.07999969-0.53333344 11.73333375 3.19999969 13.86666656 9.06666656l32.74666688 94.40000062 32.74666687-94.40000062a13.33333313 13.33333313 0 0 1 12.58666688-9.06666656h1.27999969a13.49333344 13.49333344 0 0 1 11.94666656 11.62666687l18.66666656 130.66666688a13.60000031 13.60000031 0 0 1-11.30666625 15.46666687 13.54666687 13.54666687 0 0 1-15.14666719-11.52l-10.87999968-76.26666656-27.30666657 78.87999937c-3.84 10.82666625-21.33333375 10.82666625-25.17333375 1e-8l-27.30666656-78.82666688-10.87999969 76.2666675a13.65333375 13.65333375 0 0 1-15.14666718 11.46666656 13.60000031 13.60000031 0 0 1-11.25333282-15.46666687l18.66666657-130.66666688a13.49333344 13.49333344 0 0 1 11.89333312-11.62666687zM672.00000031 390.82666687h-426.66666656c-14.71999969 0-26.66666625-12.21333375-26.66666719-27.25333312 0-15.04000031 11.94666656-27.19999969 26.66666719-27.20000063h426.66666656c14.71999969 0 26.66666625 12.16000031 26.66666625 27.20000063a26.93333344 26.93333344 0 0 1-26.66666625 27.19999969z m0-136.21333312h-426.66666656c-14.71999969 0-26.66666625-12.16000031-26.66666719-27.20000063 0-15.04000031 11.94666656-27.19999969 26.66666719-27.19999968h426.66666656a26.56000031 26.56000031 0 0 1 23.09333344 13.54666687 27.73333313 27.73333313 0 0 1 0 27.25333313 26.56000031 26.56000031 0 0 1-23.09333344 13.60000031z m0-136.16000063h-426.66666656c-14.71999969 0-26.66666625-12.16000031-26.66666719-27.19999968 0-15.04000031 11.94666656-27.25333313 26.66666719-27.25333313h426.66666656a26.56000031 26.56000031 0 0 1 23.09333344 13.59999938 27.73333313 27.73333313 0 0 1 0 27.25333406 26.56000031 26.56000031 0 0 1-23.09333344 13.59999938z"  horiz-adv-x="1024" />

    
    <glyph glyph-name="weibo1" unicode="&#59077;" d="M868.43887531 423.97443469c-14.87926875 7.43963437-29.75853656 7.43963437-22.31890312 28.79858437 14.87926875 44.63780531 22.39889906 80.87602406 0 110.63455969-36.23821875 51.1974825-139.35314813 51.1974825-249.02775563 0 0 0-36.23821875-14.87926875-29.7585375 13.91931562a117.99419906 117.99419906 0 0 1 0 131.99351063c-58.55712094 58.55712094-226.78884938 0-366.22199344-145.91282625A502.77528 502.77528 0 0 1 32 248.38306780999994c0-185.91085969 234.22848375-301.18519219 469.33692469-301.18519125 307.66487344 0 504.69518625 176.63131594 504.69518531 315.10450688a165.43186594 165.43186594 0 0 1-137.59323469 161.67205125z m-367.10195062-403.34016938c-183.99095344-21.35895-344.78304844 65.99675531-359.66231719 192.39054094-14.87926875 126.39378563 124.55387625 233.26853062 315.02451187 247.18784625 190.55063156 13.99931156 344.78304844-65.91675937 358.78235907-190.47063469 13.91931562-124.55387625-132.87346687-226.78884938-314.14455375-249.1077525zM1071.94886937 770.67738844A300.22523906 300.22523906 0 0 1 786.76289094 856.19318344a53.91734906 53.91734906 0 0 1-36.23821875-51.1974825 52.95739594 52.95739594 0 0 1 58.55712094-34.3183125 205.42989937 205.42989937 0 0 0 197.91027-65.99675531c49.03758937-54.39732563 66.87671156-130.15360125 47.43766781-200.7901275-5.27974031-21.75893063 7.99960687-43.75784813 29.75853656-49.19758125a41.83794281 41.83794281 0 0 1 51.11748656 27.83863125A278.78629312 278.78629312 0 0 1 1071.94886937 770.67738844M961.39430469 665.64255281a158.95218469 158.95218469 0 0 1-138.47319188 43.67785219 37.19817094 37.19817094 0 0 1-22.31890219-61.35698344 38.07812812 38.07812812 0 0 1 36.23821782-11.99940937c24.31880437 7.99960687 51.03749063-0.63996844 65.99675531-21.43894594 14.95926469-18.39909563 20.47899281-42.87789188 14.87926875-65.99675531a34.79828906 34.79828906 0 1 1 65.99675531-22.31890313 124.55387625 124.55387625 0 0 1-22.31890312 139.433145M515.25624031 372.85694811999997a205.42989937 205.42989937 0 0 1-226.70885344-103.19492625 136.6332825 136.6332825 0 0 1 1e-8-118.87415531c17.35914656-39.03808031 51.59746313-68.0766525 92.87543343-79.03611469a199.83017531 199.83017531 0 0 1 241.66811813 103.19492626A142.23300656 142.23300656 0 0 1 515.25624031 372.77695219z m-65.91675937-205.34990343a70.63652719 70.63652719 0 0 0-87.43570125-29.7585375 51.99744375 51.99744375 0 0 0-22.23890625 75.27629906 70.63652719 70.63652719 0 0 0 80.79602718 29.75853656c14.95926469-4.23979125 27.03867094-15.1992525 32.55839907-29.75853656a45.59775844 45.59775844 0 0 0 0-43.67785219l-3.67981875-1.83990937z m59.43707718 73.43638875a29.75853656 29.75853656 0 0 0-29.75853656-14.87926781c-14.87926875 7.43963437-14.87926875 14.87926875-7.43963437 28.79858343a53.91734906 53.91734906 0 0 0 29.7585375 14.87926875c6.47968125-7.43963437 13.91931562-14.87926875 6.47968125-28.79858437h0.95995218z"  horiz-adv-x="1194" />

    
    <glyph glyph-name="skin" unicode="&#58973;" d="M1157.937231 652.721231L938.968615 871.68A78.788923 78.788923 0 0 1 876.967385 894.562462a73.836308 73.836308 0 0 1-6.360616 0.285538H753.949538l-8.182153-4.548923c-43.224615-24.044308-98.363077-37.277538-155.273847-37.277539-56.910769 0-112.049231 13.233231-155.264 37.277539l-8.182153 4.548923H310.390154a79.478154 79.478154 0 0 1-70.301539-42.003692L23.650462 636.406154a78.582154 78.582154 0 0 1-23.177847-55.926154c0-21.129846 8.231385-40.999385 23.168-55.936l158.139077-158.139077a78.434462 78.434462 0 0 1 48.748308-22.833231V-38.59692299999995c0-44.032 35.820308-79.852308 79.852308-79.852308h560.226461c44.032 0 79.852308 35.810462 79.852308 79.852308V359.82769199999996a78.454154 78.454154 0 0 1 49.329231 22.882462l158.148923 158.139077c30.838154 30.848 30.838154 81.033846 0 111.872z m-51.052308-60.829539l-158.139077-158.12923a6.695385 6.695385 0 0 0-4.824615-2.008616 6.823385 6.823385 0 0 0-4.765539 1.890462L878.276923 491.106462V-38.59692299999995c0-4.233846-3.436308-7.68-7.68-7.68H310.4a7.68 7.68 0 0 0-7.68 7.68V472.251077l-60.386462-55.000615a6.843077 6.843077 0 0 0-4.676923-1.801847 6.695385 6.695385 0 0 0-4.824615 1.99877L74.692923 575.586462a6.793846 6.793846 0 0 0-2.028308 4.893538 6.793846 6.793846 0 0 0 2.028308 4.883692l218.486154 218.486154 6.980923 6.272 3.131077 7.729231a7.68 7.68 0 0 0 7.099077 4.814769H408.615385c52.834462-27.392 115.495385-41.826462 181.888-41.826461 66.392615 0 129.053538 14.434462 181.888 41.826461h98.166153c0.393846-0.019692 0.787692-0.078769 1.161847-0.137846l5.149538-0.738462 5.159385 0.748308a6.488615 6.488615 0 0 0 5.907692-1.900308l218.958769-218.958769a6.931692 6.931692 0 0 0 0-9.787077z"  horiz-adv-x="1181" />

    
    <glyph glyph-name="video" unicode="&#59004;" d="M100.75864359-72.29297130999998C82.84635717-61.83324184000003 71.86364201-42.87498407999999 71.86364201-22.217020639999987L71.86364201 775.46804076c0 20.65796341 10.98271516 39.74696982 28.89499979 50.07595067 17.91228464 10.32898259 39.87771493 10.32898259 57.79000136 0l28.89499977-16.73556645 0-133.49228733L187.44364472 675.31613765l0-597.38125519 517.36433162 298.75600192L284.84986905 619.22584195 284.84986905 752.58738423l564.56385664-325.95129604c17.91228464-10.32898259 28.89499977-29.41798723 28.89499979-50.07595068S867.19526346 337.07466139999997 849.28297881 326.61493192l-690.86508071-398.77715637c-8.8907689-5.09911698-18.82751091-7.71405069-28.8949998-7.71405069C119.71690136-80.00702201000001 109.64941249-77.39208828000005 100.75864359-72.29297130999998L100.75864359-72.29297130999998zM100.75864359-72.29297130999998"  horiz-adv-x="1024" />

    
    <glyph glyph-name="new" unicode="&#59201;" d="M294.99982148 670.42534744h977.21589104c93.05454098 0 168.48549873-75.43095774 168.48549873-168.48549872v-235.87969745c0-93.05454098-75.43095774-168.48549873-168.48549873-168.48549871H294.99982148C201.9452805 97.57465256 126.51432277 173.00561030999995 126.51432277 266.06015128V501.93984872C126.51432277 594.9943896899999 201.9452805 670.42534744 294.99982148 670.42534744z m75.24562321-421.21374597l34.94389239 164.66087728h3.75722701L498.95151706 249.21160147h50.54564944l60.62108285 284.90897752h-69.50026861l-35.34825728-166.24464106h-3.74037828L412.68694179 534.12057899h-51.33753106L300.74517663 249.21160147h69.50026806z m459.17352944 58.24543634h-122.82592837l12.45107824 58.24543689h115.3114749l11.25483118 53.30881211h-115.3114749l12.04671333 56.86385529h122.60689688l12.6364128 58.24543689h-195.27469309L621.71005156 249.21160147h195.27469252l12.43423006 58.24543634z m263.10695418 116.28869105h3.55504429L1106.94828706 249.21160147h69.29808532l134.6536108 284.90897752h-74.43689339l-77.78975495-188.95648613h-3.55504373L1147.21632093 534.12057899h-57.04918926l-85.89390729-188.95648613h-3.55504429l1.17939888 188.95648613h-74.03252849L941.88304432 249.21160147h67.32680484l83.31607916 174.55097613z"  horiz-adv-x="2730" />

    
    <glyph glyph-name="nan" unicode="&#58996;" d="M625.50211156 863.34045375v-88.97882719h191.86809094l-188.15064656-196.72475156a396.4474425 396.4474425 0 0 1-496.09893188-51.86434406 364.429455 364.429455 0 0 1 21.10549032-523.73992875 386.31440906 386.31440906 0 0 1 535.73168437 20.92561406 354.23646281 354.23646281 0 0 1 12.35150813 488.60408437l197.86396874 207.15757969v-211.17481781h91.55705438v355.79539125z m-5.99587781-777.0657675a286.4830425 286.4830425 0 0 0-396.4474425-14.33014781 267.89582156 267.89582156 0 0 0-14.45006531 385.77477937 286.4830425 286.4830425 0 0 0 396.4474425 14.27018907 267.95578031 267.95578031 0 0 0 14.56998281-385.53494438z m0 0"  horiz-adv-x="1024" />

    
    <glyph glyph-name="nv" unicode="&#59872;" d="M991.34045375 270.49788844l-88.97882719 0 1e-8-191.86809094-196.72475157 188.15064656a396.4474425 396.4474425 0 0 1-51.86434407 496.09893188 364.429455 364.429455 0 0 1-523.73992874-21.10549032 386.31440906 386.31440906 0 0 1 20.92561406-535.73168437 354.23646281 354.23646281 0 0 1 488.60408437-12.35150813l207.15757969-197.86396874-211.17481781 0 0-91.55705438 355.79539125 0z m-777.0657675 5.99587781a286.4830425 286.4830425 0 0 0-14.33014781 396.44744251 267.89582156 267.89582156 0 0 0 385.77477937 14.4500653 286.4830425 286.4830425 0 0 0 14.27018907-396.4474425 267.95578031 267.95578031 0 0 0-385.53494438-14.56998281z m0 0"  horiz-adv-x="1024" />

    
    <glyph glyph-name="tuijian" unicode="&#58885;" d="M990.378667 86.78399999999999s-94.464-18.944-190.378667-38.741333l-127.658667-142.165334-137.045333 233.813334c-7.68-0.426667-15.36-1.109333-23.296-1.109334-7.850667 0-15.616 0.682667-23.296 1.109334l-137.045333-233.813334-127.658667 142.165334a44514.048 44514.048 0 0 1-190.378667 38.741333l148.992 254.293333a355.157333 355.157333 0 0 0-37.802666 159.232C144.810667 700.16 309.248 862.122667 512 862.122667c202.837333 0 367.189333-161.962667 367.189333-361.813334 0-57.173333-13.824-111.104-37.802666-159.146666l148.992-254.378667z m-310.869334-72.448s45.909333 43.52 89.002667 85.504c61.269333 17.408 122.965333 35.157333 122.965333 35.157333L804.864 282.794667a367.104 367.104 0 0 0-204.544-133.205334l79.189333-135.253333z m-546.986666 120.661333l122.965333-35.157333c43.178667-41.898667 89.088-85.504 89.088-85.504l79.189333 135.168a367.189333 367.189333 0 0 0-204.629333 133.290667L132.608 134.99733300000003zM512 802.730667a298.837333 298.837333 0 0 1-298.496-299.093334A298.837333 298.837333 0 0 1 512 204.54399999999998 298.837333 298.837333 0 0 1 810.666667 503.637333 298.837333 298.837333 0 0 1 512 802.730667zM327.253333 584.021333h109.312c3.242667 5.973333 6.314667 12.117333 9.386667 18.432h31.573333l-9.130666-18.432h233.813333v-27.989333H453.546667c-9.984-17.834667-20.394667-34.645333-31.146667-50.346667v-198.656h-30.378667V465.152c-18.432-22.272-37.717333-41.898667-58.026666-58.965333a768.853333 768.853333 0 0 1-18.773334 26.794666c40.789333 32.853333 75.946667 73.898667 105.557334 123.050667H327.253333v27.989333z m-0.853333 76.8h105.557333V696.3199999999999h30.378667v-35.584h111.189333v35.925333h30.378667v-35.925333h103.936v-27.989333H603.904v-29.184H573.44v29.184H462.336v-24.746667h-30.378667v24.746667H326.485333v27.989333zM452.096 436.053333h120.32v19.626667l58.282667 37.546667H473.6V520.5333330000001H680.106667v-27.221333l-77.482667-49.152v-8.021333h105.130667v-27.989334H602.709333v-53.162666c0-31.402667-14.506667-47.189333-43.605333-47.189334-16.810667 0-39.936 0.170667-69.546667 0.426667a622.506667 622.506667 0 0 1-5.205333 32.426667c24.490667-2.133333 46.933333-3.242667 67.157333-3.242667 13.824 0 20.821333 7.509333 20.821334 22.357333v48.384h-120.32v27.989334z"  horiz-adv-x="1024" />

    
    <glyph glyph-name="shougaoguanxi" unicode="&#58934;" d="M928.896-128H410.368a95.36 95.36 0 0 0-95.168 95.168v518.4a95.36 95.36 0 0 0 95.168 95.104L512 576v-64H448c-30.784 5.504-64 3.136-64 0v-576h576V512h-192V576h192c52.416 0 64-38.08 64-90.432v-518.4A95.36 95.36 0 0 0 928.896-128z m-315.52 315.328L512 192v64h128V832H64v-576h192v-64l-160.896-4.672A95.36 95.36 0 0 0 0 282.496V800.832C0 853.568 42.752 896 95.104 896h518.272C665.728 896 704 820.736 704 768v-512c0-52.416-38.272-68.672-90.624-68.672z"  horiz-adv-x="1024" />

    
    <glyph glyph-name="remen" unicode="&#59030;" d="M900.53953344 514.3739325c45.61341656 49.83688031 15.33885469 195.7191825 7.71742125 175.79211-7.62143344-20.02306125-39.14383687-22.88349844-39.14383688-22.88349844s13.34230781 10.48187062 4.74179906 87.84806063c-8.52371906 77.4237825-36.28339969 108.90779063-36.28339968 108.90779062s-19.12077563-29.58344906-58.26461157-67.80580219-103.18691625-42.00427406-103.18691625-42.00427406 2.86043719 10.46267344 5.72087438 28.16282906c2.86043719 17.68095844-3.78192 37.76161219-3.78192 37.76161125s-8.58131156-12.4784175-54.48269156-42.06186656c-23.92016719-15.45404063-36.62895563-20.48380219-43.38649875-21.75084187a428.87361844 428.87361844 0 1 1 201.67042875-756.71044875 428.83522406 428.83522406 0 0 1 118.66015312 514.85951625v-0.11518594z m-518.52625125-347.93668125h-55.17380344v106.71926813H216.74143906v-106.68087375H161.62522719V425.04765938H216.74143906v-104.31957282h110.09803969v104.37716532h55.09701375V166.55243625000003l0.07678969-0.115185z m156.90170531 225.47540906c-21.57806344 0-38.56791-8.00538469-50.9311425-24.03535219-12.4784175-16.0299675-18.66003375-36.80173312-18.66003375-62.25770531 0-25.16800875 6.06643031-45.72860156 18.19929281-61.68177937 12.13286156-15.972375 28.77715125-23.92016719 49.89447281-23.92016625 21.57806344 0 38.39513156 7.60223625 50.41280813 22.88349843 12.01767656 15.33885469 18.02651438 35.88025031 18.02651437 61.68177844 0 26.95338188-5.83606031 48.24348281-17.50818 63.87030094-11.67211969 15.62681812-28.14363094 23.45942531-49.43373187 23.45942531z m104.37716437-192.28281843c-23.45942531-25.12961344-54.13713562-37.64642625-92.07152531-37.64642626-37.03210406 0-67.1338875 12.19045406-90.30534937 36.51376969-23.11386938 24.26572313-34.67080406 55.57695281-34.67080313 93.85689938 0 40.52606156 11.78730563 73.48828125 35.47710094 98.94425343 23.63220375 25.39837969 54.88584094 38.10716813 93.68412094 38.10716813 36.97451156 0 66.67314562-12.30564 89.26868062-36.91691906 22.49954719-24.61127906 33.76851844-56.191275 33.76851844-94.75918407 0-40.29569062-11.74891031-73.02754031-35.15074313-98.09956125z m242.46525563 180.38032781h-73.81464v-213.51532594h-55.21219969V379.89498469h-73.58426906v45.21026718h202.57271344v-45.03748968l0.03839531-0.0575925z m0 0"  horiz-adv-x="1024" />

    
    <glyph glyph-name="huo" unicode="&#59003;" d="M356.04859259-105.82091851999996c-3.03407408 0-6.18951111 0.60681482-9.10222222 1.82044444-1.94180741 0.84954075-49.27336297 20.14625185-103.27988148 60.3173926-31.7970963 23.66577778-59.58921482 49.63745185-82.28408889 77.42957037-28.88438518 35.19525925-49.75881482 73.0605037-62.13783703 112.74619259-31.7970963 101.21671111-8.98085925 212.26382222 67.59917036 330.22862222 10.19448889 20.02488889 35.19525925 75.48776297 37.0157037 108.49848889l0.12136297 1.33499259 0.24272592 1.3349926c2.79134815 16.62672592 13.83537778 27.54939259 28.15620741 27.91348147 22.08805925 0.48545185 30.70482963-23.05896297 34.83117037-34.3457185 5.70405925-15.77718518 12.01493333-39.07887408 19.05398519-71.36142223 45.02565925 35.0738963 130.34382222 128.64474075 149.03371852 341.63674073v5.82542223c0 9.58767408 4.73315555 18.6898963 12.50038518 24.15122963 7.88859259 5.5826963 17.96171852 6.91768889 26.94257778 3.64088889 35.19525925-12.62174815 156.80094815-70.51188148 252.79905185-289.3293037 1.09226667 13.59265185 1.57771852 32.768 1.09226667 59.83194073-0.24272592 12.25765925 6.91768889 23.42305185 18.20444444 28.27757038s24.27259259 2.54862222 33.01072592-6.06814816c44.9042963-43.5693037 190.17576297-201.09842963 174.51994075-396.73552592-10.8013037-133.62062222-93.93493333-255.71176297-247.21635555-362.87525925-8.98085925-6.18951111-21.11715555-5.82542222-29.61256297 0.9709037s-11.40811852 18.56853333-7.28177778 28.64165925c3.2768 7.76722963 31.55437037 78.40047408 28.5202963 173.6704-1.69908148 54.61333333-13.59265185 106.92077037-35.0738963 155.46595556-23.66577778 53.64242963-59.46785185 103.03715555-106.55668148 147.33463704-17.96171852-51.09380741-57.76877037-141.14512592-136.77605925-227.79828148l-0.60681482-0.72817778-0.72817778-0.60681482c-0.48545185-0.36408889-49.63745185-48.05973333-34.7098074-98.42536296 3.88361482-12.86447408-3.51952592-26.45712592-16.384-30.34074074-12.86447408-3.88361482-26.45712592 3.51952592-30.34074075 16.384-22.45214815 75.60912592 39.07887408 138.96059259 47.33155556 146.97054815 89.08041482 98.06127408 124.63976297 202.91887408 133.3778963 232.6528 3.15543703 10.55857778 11.28675555 18.6898963 21.84533333 21.84533333 10.55857778 3.15543703 21.84533333 0.72817778 30.21937777-6.5536 61.77374815-53.15697778 108.1344-114.08118518 137.86832593-181.1949037 24.02986667-54.37060741 37.25842963-112.74619259 39.20023704-173.6704 1.45635555-46.8461037-3.88361482-88.4736-10.8013037-121.2416 104.12942222 86.89588148 160.92728889 181.80171852 169.0586074 283.01842962 5.94678518 74.3954963-14.0781037 151.7037037-59.71057777 229.86145186-22.81623703 39.07887408-48.42382222 71.60414815-68.8128 95.0272-0.60681482-17.47626667-2.06317037-31.7970963-4.12634075-43.08385186-1.82044445-9.58767408-7.16041482-38.83614815-31.43300741-44.1761185-16.384-3.51952592-31.31164445 5.21860741-44.66157037 26.09303703-6.31087408 9.95176297-10.67994075 19.78216297-11.16539258 20.87442963-38.59342222 89.68722963-85.31816297 160.80592592-139.08195556 211.17155556-25.60758518 24.02986667-48.1810963 38.83614815-64.68645926 47.8170074-10.8013037-99.03217778-36.65161482-183.86488889-76.94411852-252.55632592-35.55934815-60.56011852-74.3954963-95.0272-100.73125926-113.23164445-11.28675555-7.76722963-25.60758518-9.46631111-38.22933334-4.36906667-12.74311111 5.09724445-22.08805925 16.14127408-24.8794074 29.4912-1.94180741 9.10222222-3.76225185 17.3549037-5.46133333 24.63668149-11.04402963-29.97665185-23.66577778-54.97742222-26.09303705-59.46785185l-0.6068148-1.09226667-0.72817778-0.97090371c-68.8128-105.58577778-89.80859259-203.1616-62.62328889-290.05748148C192.20859259 12.629333330000009 363.5730963-58.36800000000005 365.27217778-59.09617777999995c12.50038518-5.09724445 18.44717037-19.29671111 13.47128889-31.7970963-3.88361482-9.22358518-12.98583703-14.92764445-22.69487408-14.92764444z"  horiz-adv-x="1024" />

    
    <glyph glyph-name="weizhi" unicode="&#58882;" d="M684.10980877 600.6012127399999C638.02715288 644.77436633 580.86938353 667.4974439 512 669.08869583c-68.86938353-1.65490201-126.02715288-24.37797958-172.10980877-68.55113316-45.76440551-44.17315358-69.50588431-99.35777053-71.4790367-165.93575129 0.31825039-37.68084571 9.73846182-74.72519064 27.6241335-107.50498041 26.60573228-42.90015203 67.53273192-91.59246111 123.09924931-145.82232689l80.51734769-77.27119371c6.81055826-6.81055826 17.8856717-6.81055826 25.01448033 0l80.19909729 77.27119372c55.18461694 54.22986578 96.11161658 102.60392446 122.78099894 145.18582611 9.10196105 16.23076969 16.23076969 34.11644138 20.81357525 52.2567134 4.83740587 18.52217247 7.12880865 37.04434494 7.12880863 55.88476778-1.65490201 66.57798076-25.65098111 121.82624778-71.4790367 165.99940136z m29.59728591-212.71855804c-3.88265471-14.95776816-9.42021143-29.53363582-16.86727047-43.21840241-24.69622995-39.65399811-64.03197767-85.41840361-116.9888419-137.67511701L512.31825039 142.00240644999997 444.46726808 207.30738567000003C391.51040384 258.92759828 352.55655659 305.07390425999995 327.54207625 344.98250267000003c-14.63951777 27.62413351-22.40482718 58.43077088-22.72307757 89.9375591 1.59125194 55.88476778 21.45007602 101.96742368 60.40392328 139.6482694 38.95384725 37.68084571 87.39155601 56.83951895 147.09532843 58.43077087 59.44917212-1.59125194 107.82323079-20.81357525 146.77707804-58.43077087 38.63559687-37.36259532 58.81267134-83.76350161 60.40392327-140.92127095 0-14.63951777-1.90950232-30.23378668-5.79215702-45.76440552zM512 542.74329256c-30.87028746-0.63650077-56.20301817-11.39336382-76.63469295-31.82503861-20.1134244-20.43167479-30.87028746-45.76440551-31.50678824-76.31644257 0.63650077-30.55203706 11.01146336-56.20301817 31.50678824-76.31644256 20.43167479-20.43167479 45.76440551-31.18853783 76.63469295-31.82503862 30.87028746 0.63650077 56.20301817 11.39336382 76.63469295 31.82503862 20.1134244 20.43167479 30.87028746 45.76440551 31.50678824 76.31644257-0.63650077 30.55203706-11.01146336 55.88476778-31.50678824 76.31644256-20.43167479 20.49532486-45.76440551 31.18853783-76.63469295 31.82503861z m50.98371185-159.12519302c-13.30286615-13.62111652-29.85188621-20.43167479-50.98371185-21.13182564-21.13182563 0.63650077-37.68084571 7.44705904-50.98371185 21.13182564-13.62111652 13.62111652-20.43167479 29.85188621-21.13182563 50.98371185 0.63650077 21.13182563 7.44705904 37.36259532 21.13182564 50.98371184 13.30286615 13.30286615 29.85188621 20.43167479 50.98371184 21.13182563 21.13182563-0.63650077 37.68084571-7.44705904 50.98371185-21.13182563 13.62111652-13.93936691 20.43167479-30.55203706 21.13182563-51.93846301-0.63650077-19.47692362-7.51070912-36.0259437-21.13182564-50.02896068z"  horiz-adv-x="1024" />

    
    <glyph glyph-name="fenlei" unicode="&#58884;" d="M348.53333333 341.33333333999997L212 341.33333333999997c-75.09333333 0-136.53333333-61.44-136.53333335-136.53333333l0-136.53333334c0-75.09333333 61.44-136.53333333 136.53333335-136.53333333l136.53333333 0c75.09333333 0 136.53333333 61.44 136.53333333 136.53333333l0 136.53333334C485.06666666 279.89333334 423.62666666 341.33333333999997 348.53333333 341.33333333999997zM416.8 68.26666666999995c0-37.54666667-30.72-68.26666667-68.26666667-68.26666666L212 1.0000007932831068e-8c-37.54666667 0-68.26666667 30.72-68.26666667 68.26666666l0 136.53333334c0 37.54666667 30.72 68.26666667 68.26666667 68.26666666l136.53333333 0c37.54666667 0 68.26666667-30.72 68.26666667-68.26666666L416.8 68.26666666999995zM826.4 819.2000000099999l-136.53333335 0C614.77333332 819.2000000099999 553.33333332 757.76000001 553.33333332 682.66666667l0-136.53333333c0-75.09333333 61.44-136.53333333 136.53333333-136.53333333l136.53333335 0c75.09333333 0 136.53333333 61.44 136.53333333 136.53333333L962.93333333 682.66666667C962.93333333 757.76000001 901.49333333 819.2000000099999 826.4 819.2000000099999zM894.66666666 546.13333334c0-37.54666667-30.72-68.26666667-68.26666666-68.26666667l-136.53333335 0C652.31999999 477.86666667 621.59999999 508.58666667 621.59999999 546.13333334L621.59999999 682.66666667c0 37.54666667 30.72 68.26666667 68.26666666 68.26666667l136.53333335 0c37.54666667 0 68.26666667-30.72 68.26666666-68.26666667L894.66666666 546.13333334zM826.4 341.33333333999997l-136.53333335 0c-75.09333333 0-136.53333333-61.44-136.53333332-136.53333333l0-136.53333334c0-75.09333333 61.44-136.53333333 136.53333332-136.53333333l136.53333335 0c75.09333333 0 136.53333333 61.44 136.53333333 136.53333333l0 136.53333334C962.93333333 279.89333334 901.49333333 341.33333333999997 826.4 341.33333333999997zM894.66666666 68.26666666999995c0-37.54666667-30.72-68.26666667-68.26666666-68.26666666l-136.53333335 0c-37.54666667 0-68.26666667 30.72-68.26666666 68.26666666l0 136.53333334c0 37.54666667 30.72 68.26666667 68.26666666 68.26666666l136.53333335 0c37.54666667 0 68.26666667-30.72 68.26666666-68.26666666L894.66666666 68.26666666999995zM348.53333333 819.2000000099999L212 819.2000000099999C136.90666665 819.2000000099999 75.46666665 757.76000001 75.46666665 682.66666667l0-136.53333333c0-75.09333333 61.44-136.53333333 136.53333335-136.53333333l136.53333333 0c75.09333333 0 136.53333333 61.44 136.53333333 136.53333333L485.06666666 682.66666667C485.06666666 757.76000001 423.62666666 819.2000000099999 348.53333333 819.2000000099999zM416.8 546.13333334c0-37.54666667-30.72-68.26666667-68.26666667-68.26666667L212 477.86666667C174.45333333 477.86666667 143.73333333 508.58666667 143.73333333 546.13333334L143.73333333 682.66666667c0 37.54666667 30.72 68.26666667 68.26666667 68.26666667l136.53333333 0c37.54666667 0 68.26666667-30.72 68.26666667-68.26666667L416.8 546.13333334z"  horiz-adv-x="1024" />

    
    <glyph glyph-name="wangluo" unicode="&#58929;" d="M164.417 453.518c50.754 172.916 161.931 296.253 365.221 313.83 13.997 1.226 33.596 0.115 49.58 3.145 13.767 2.674 30.565 12.569 46.434 19.089 64.396 26.309 206.728 72.52 278.592 15.833 62.358-49.3 50.869-169.138 12.366-247.303 30.745-61.759 53.49-147.78 40.251-244.112-180.596-7.387-391.058-0.987-566.494-3.195 5.892-93.013 64.607-164.251 151.697-174.317 85.103-9.84 143.964 38.004 182.638 91.9h216.646c-56.291-160.876-199.381-285.662-420.925-269.482-50.403 3.725-89.655 18.338-133.148 34.924-72.597-39.521-233.239-98.19-297.146-15.83-48.532 62.507-17.351 176.24 9.278 250.388 53.897 150.225 156.506 299.047 256.926 383.616 0.578 2.62 3.091 3.205 3.091 6.345-79.335-40.275-132.819-107.032-195.007-164.831zM925.89 688.077c-2.976 107.905-142.859 97.315-216.705 53.894 82.479-32.826 142.679-88.466 191.913-155.283 10.735 33.872 25.897 61.989 24.792 101.389zM390.367 425h343.605C724 645.472 401.158 627.6600000000001 390.367 425z m-253.83-386.821c17.235-97.609 154.609-69.206 216.702-25.378C271.723 58.32000000000005 220.943 135.20299999999997 179.875 222.10000000000002c-19.046-47.027-54.714-119.432-43.338-183.921z m0 0"  horiz-adv-x="1024" />

    
    <glyph glyph-name="mingxing" unicode="&#58883;" d="M906.98666667 40.32000000000005l14.29333333-121.28c-3.2-5.97333333-8.32-10.24-14.4-12.16l-105.38666667 52.37333333-105.81333333-52.58666666c-5.76 1.6-10.77333333 5.22666667-14.18666667 10.34666666l14.61333334 123.30666667-81.17333334 91.84c0.42666667 5.97333333 2.88 11.62666667 6.82666667 16.10666667l114.56 23.25333333L795.41333333 284.79999999999995c4.05333333 1.06666667 8.42666667 1.06666667 12.48-0.10666667l58.88-113.06666666 114.13333334-23.36c4.05333333-4.48 6.61333333-10.34666667 6.93333333-16.53333334l-80.85333333-91.41333333zM613.54666667 320.53333333c3.09333333-1.38666667 6.18666667-2.66666667 9.17333333-4.05333333 5.54666667-2.66666667 11.09333333-5.33333333 16.53333333-8.10666667 6.29333333-3.30666667 12.37333333-6.72 18.45333334-10.34666666 4.58666667-2.77333333 9.17333333-5.54666667 13.65333333-8.42666667l0.96-0.64c5.86666667-3.84 9.49333333-10.24 9.92-17.17333333l0.96-9.28c0.10666667-1.49333333 0-8.64 0-10.13333334-1.38666667-20.90666667-18.56-37.33333333-39.36-37.33333333-13.01333333 0-35.30666667 13.97333333-35.30666667 13.97333333-44.26666667 24.42666667-94.4 39.25333333-148.05333333 40.96-3.52-0.10666667-6.93333333-0.53333333-10.45333333-0.53333333-3.52 0-6.93333333 0.42666667-10.45333334 0.53333333-164.69333333-5.22666667-298.88-132.05333333-318.61333333-295.04h-0.96v-0.53333333c0-23.25333333-18.56-42.02666667-41.38666667-42.02666667S37.22666667-48.853333330000055 37.22666667-25.600000000000023l-0.42666667 3.94666667c0 5.65333333 1.17333333 10.98666667 3.09333333 15.89333333 12.69333333 89.28 52.58666667 169.49333333 111.46666667 231.46666667l0.10666667 0.10666666c7.04 7.36 14.4 14.4 21.97333333 21.33333334 2.02666667 1.81333333 3.94666667 3.73333333 5.97333333 5.54666666 6.61333333 5.76 13.44 11.2 20.37333334 16.53333334 3.41333333 2.66666667 6.72 5.22666667 10.24 7.78666666 6.29333333 4.58666667 12.8 8.85333333 19.30666666 13.12 4.48 2.88 9.06666667 5.65333333 13.65333334 8.42666667 6.08 3.52 12.16 6.93333333 18.45333333 10.13333333 5.44 2.88 10.98666667 5.54666667 16.53333333 8.10666667 2.88 1.38666667 5.76 2.56 8.64 3.84-76.69333333 53.01333333-127.04 142.29333333-127.04 243.73333333 0 162.98666667 130.02666667 294.93333333 290.56 294.93333334 160.42666667 0 290.56-132.05333333 290.56-294.93333334-0.10666667-101.33333333-50.45333333-190.72-127.14666666-243.84z m-163.52 454.4c-114.56 0-207.46666667-94.29333333-207.46666667-210.66666666s92.90666667-210.66666667 207.46666667-210.66666667S657.6 448 657.6 564.26666667c-0.10666667 116.37333333-93.01333333 210.66666667-207.57333333 210.66666666z"  horiz-adv-x="1024" />

    
    <glyph glyph-name="jijiangkaibo" unicode="&#58881;" d="M965.12 566.272c-48.64 113.152-139.264 203.776-252.416 252.416 30.72 24.064 69.12 38.4 111.104 38.4 99.328 0 179.712-80.384 179.712-179.712 0-41.984-14.336-80.384-38.4-111.104z m-7.68-198.656c0-117.76-46.08-224.768-121.344-304.128l61.952-61.952c8.192-8.192 13.312-19.456 13.312-32.256 0-25.088-20.48-45.568-45.568-45.568-12.288 0-24.064 5.12-32.256 13.312l-66.56 66.56c-72.192-50.176-159.232-79.872-253.952-79.872-94.208 0-181.248 29.696-253.44 79.872l-66.048-66.048c-8.192-8.192-19.968-13.312-32.256-13.312-25.6 0-46.08 20.48-46.08 46.08 0 12.8 5.12 24.064 13.312 32.256l61.44 61.44c-74.752 79.36-120.832 186.368-120.832 304.128 0 245.248 198.656 443.904 443.904 443.904 245.76-0.512 444.416-199.168 444.416-444.416z m-443.904 352.256c-194.56 0-352.256-157.696-352.256-352.256S318.976 15.36 513.536 15.36s352.256 157.696 352.256 352.256-157.696 352.256-352.256 352.256z m183.808-398.336h-183.808c-25.6 0-46.08 20.48-46.08 46.08v244.736c0 25.6 20.48 46.08 46.08 46.08s46.08-20.48 46.08-46.08v-199.168h137.728c25.6 0 46.08-20.48 46.08-46.08 0-25.088-20.48-45.568-46.08-45.568zM63.488 560.128c-24.576 31.232-39.424 70.656-39.424 113.664 0 101.376 82.432 183.808 183.808 183.808 43.008 0 82.432-14.848 113.664-39.424C205.312 768.512 112.64 675.84 63.488 560.128z"  horiz-adv-x="1024" />

    
    <glyph glyph-name="rexing" unicode="&#58932;" d="M315.73333334 834.56s20.48-215.04-87.04-409.6c0 46.08-56.32 81.92-56.32 81.92s-107.52-122.88-107.52-268.8c0-120.832 74.752-304.64 399.36-304.64 146.432 0 302.08 50.176 373.76 151.04 120.32 168.96-97.28 478.72-97.28 478.72s2.56-58.88-38.4-99.84c-15.36 163.84-204.8 317.44-386.56 371.2zM653.14133334-37.888000000000034c45.056 97.792 98.816 324.608-150.528 496.128 15.36-117.76-66.56-209.92-66.56-209.92s-15.36 66.56-66.56 87.04c0 0-171.008-220.672-48.64-387.584 41.472-9.216 89.088-14.336 143.36-14.336 63.488 0 129.024 9.728 188.928 28.672z"  horiz-adv-x="1024" />

    
    <glyph glyph-name="zongyi" unicode="&#58939;" d="M512 869.45185185c-267.67815111 0-485.45185185-217.77370075-485.45185185-485.45185185s217.77370075-485.45185185 485.45185185-485.45185185 485.45185185 217.77370075 485.45185185 485.45185185-217.77370075 485.45185185-485.45185185 485.45185185z m0-921.7395674c-240.56566518 0-436.28771555 195.70991408-436.28771555 436.28771555S271.43433482 820.28771555 512 820.28771555 948.28771555 624.5778014800001 948.28771555 384 752.56566518-52.28771555000003 512-52.28771555000003zM765.52722963 507.88731259H595.27926518L542.34074075 680.92662518c-8.1798637 26.61489778-52.4288 26.61489778-60.59652742 0l-53.03561481-173.03931259H258.44849778A31.68786963 31.68786963 0 0 1 238.93333333 451.22294518l139.64022519-109.0931674-53.55747555-176.46174815a31.70000592 31.70000592 0 0 1 12.29406814-35.31662222 31.4694163 31.4694163 0 0 1 37.33124741 1.01944889l137.47996445 106.05909333 137.35860148-105.47655111a31.67573333 31.67573333 0 0 1 49.63745185 34.35785481L645.49925925 341.94773333l139.6402252 109.22666667a31.71214222 31.71214222 0 0 1-19.58798223 56.66436741z"  horiz-adv-x="1024" />

    
    <glyph glyph-name="link" unicode="&#58912;" d="M565.61827071 310.52879872999995c-8.79340278 0-17.47110368 3.35537839-24.29756242 10.06613299-13.42151139 13.42151139-13.42151139 35.17361338 0 48.59512477L689.30443496 517.05807903c13.42151139 13.42151139 35.17361338 13.42151139 48.59512476 0 13.42151139-13.42151139 13.42151139-35.17361338 0-48.5951248l-147.98372665-147.98372448c-6.7107546-6.7107546-15.50415959-9.95043106-24.29756236-9.95043102zM381.07250069 495.0745709c-8.79340278 0-17.47110368 3.35537839-24.2975624 10.06613298-13.42151139 13.42151139-13.42151139 35.17361338 0 48.59512477l147.98372448 147.98372449c13.42151139 13.42151139 35.17361338 13.42151139 48.5951248 0 13.42151139-13.42151139 13.42151139-35.17361338 0-48.59512478l-147.98372451-148.09942642c-6.7107546-6.59505266-15.50415959-9.95043106-24.29756237-9.95043104z m-256.16572913-256.16572914c-8.79340278 0-17.47110368 3.35537839-24.29756239 10.06613298-13.42151139 13.42151139-13.42151139 35.17361338 0 48.59512476l155.27299317 155.27299319c13.42151139 13.42151139 35.17361338 13.42151139 48.59512478 0 13.42151139-13.42151139 13.42151139-35.17361338 0-48.59512475l-155.27299319-155.2729932c-6.82645873-6.82645873-15.50415959-10.06613298-24.29756237-10.06613298zM309.45254154 54.247367629999985c-8.79340278 0-17.47110368 3.35537839-24.29756236 10.06613299-13.42151139 13.42151139-13.42151139 35.17361338 0 48.59512477L440.4279745 268.06591662000005c13.42151139 13.42151139 35.17361338 13.42151139 48.59512477 0 13.42151139-13.42151139 13.42151139-35.17361338 0-48.59512477l-155.38869727-155.27299316c-6.59505266-6.59505266-15.38845547-9.95043106-24.18186046-9.95043106z m-56.0000954 130.16551278c-8.79340278 0-17.47110368 3.35537839-24.29756242 10.06613298-13.42151139 13.42151139-13.42151139 35.17361338 0 48.59512476l343.7526557 343.7526557c13.42151139 13.42151139 35.17361338 13.42151139 48.59512478 0 13.42151139-13.42151139 13.42151139-35.17361338 0-48.59512476l-343.75265569-343.7526557c-6.7107546-6.82645873-15.38845547-10.06613298-24.29756237-10.06613298z m0 0M215.03915627 13.982835669999986c-42.23147821 0-84.34725228 16.08267154-116.39689336 48.1323148-31.12402111 31.12402111-48.24801675 72.54557914-48.24801674 116.39689336 0 43.96701835 17.12399564 85.38857638 48.24801674 116.39689339 13.42151139 13.42151139 35.17361338 13.42151139 48.59512479 0 13.42151139-13.42151139 13.42151139-35.17361338 0-48.59512477-18.1653197-18.1653197-28.23145273-42.34718015-28.23145276-68.0331747 0-25.68599453 10.06613298-49.86785495 28.23145276-67.91747056 37.48766768-37.48766768 98.34727559-37.48766768 135.83494327 0 13.42151139 13.42151139 35.17361338 13.42151139 48.59512478 0s13.42151139-35.17361338 0-48.59512476c-32.28104717-31.81823717-74.51252537-47.78520674-116.62829948-47.78520676z m503.30664941 449.27349804c-8.79340278 0-17.47110368 3.35537839-24.29756238 10.06613301-13.42151139 13.42151139-13.42151139 35.17361338 0 48.59512478 37.48766768 37.48766768 37.48766768 98.34727559 0 135.83494543-37.48766768 37.48766768-98.34727559 37.48766768-135.83494326 0-13.42151139-13.42151139-35.17361338-13.42151139-48.59512477 0-13.42151139 13.42151139-13.42151139 35.17361338 0 48.59512476 64.21498627 64.21498627 168.69450458 64.21498627 232.90949086 0s64.21498627-168.69450458 0-232.90949084c-6.47935068-6.82645873-15.38845547-10.18183493-24.18186045-10.18183714z m0 0"  horiz-adv-x="1024" />

    
    <glyph glyph-name="play" unicode="&#59007;" d="M701.44 356.352L440.32 184.52480000000003a32.9728 32.9728 0 0 0-45.6704 9.4208 31.9488 31.9488 0 0 0-5.5296 18.2272V555.8272A32.9728 32.9728 0 0 0 422.0928 588.8a33.792 33.792 0 0 0 18.2272-5.3248l261.12-171.8272a33.1776 33.1776 0 0 0 9.4208-45.8752 37.4784 37.4784 0 0 0-9.4208-9.4208zM512-128a512 512 0 1 0 512 512 512 512 0 0 0-512-512z m0 57.9584A454.0416 454.0416 0 1 1 57.9584 384 454.2464 454.2464 0 0 1 512-70.04160000000002z"  horiz-adv-x="1024" />

    
    <glyph glyph-name="house" unicode="&#58918;" d="M987.41045281 524c-10.58086969 30.01043438-37.23130406 51.61043437-69.55826062 56.36869593L689.8313225 613.78086968l-99.02608688 202.51826063c-14.31652219 29.32173937-45.24521719 48.27130406-78.80347781 48.27130406-33.47478281 0-64.36173937-18.94956562-78.72-48.27130406l-99.06782625-202.53913031L106.21393062 580.30608687c-32.34782625-4.65391312-59.01913031-26.23304344-69.59999999-56.41043437-10.56-30.46956562-2.69217375-63.56869594 20.51478281-86.37913032l167.35304344-164.66086968-38.81739094-228.16695657c-5.44695656-31.80521719 8.70260906-64.4243475 36.14608687-83.1443475 26.83826063-18.05217375 62.81739094-20.03478281 91.72173938-4.84173937l198.51130406 105.37043437 198.63652219-105.39130406c12.8556525-6.78260906 27.27652219-10.37217375 41.73913031-10.37217375 17.82260906 0 35.08173937 5.25913031 50.00347781 15.29739094 27.31826063 18.63652219 41.44695656 51.23478281 36 83.04l-38.79652218 228.18782625 167.37391312 164.66086969C990.16523562 460.32695656 998.03306094 493.44695656 987.41045281 524zM937.67827906 467.2556525l-182.90086969-179.95826063 42.44869594-249.68347781c2.75478281-16.02782625-4.29913031-31.93043438-18.26086968-41.46782625-14.2956525-9.6-33.57913031-10.62260906-48.79304344-2.60869594L512.00175687 109.32173937000005l-218.00347781-115.72173937c-15.38086969-8.09739094-34.68521719-7.01217375-48.79304344 2.5043475-14.10782625 9.62086969-21.16173937 25.5443475-18.40695656 41.57217375l42.46956563 249.64173937-182.88 179.95826063c-11.60347781 11.39478281-15.56869594 27.86086969-10.37217375 42.86608687 5.40521719 15.36 19.24173938 26.42086969 36.20869593 28.86260906l249.82956563 36.66782625 108.73043437 222.30260907c7.38782625 15.10956562 23.58260906 24.87652219 41.23826063 24.87652218 17.71826062 0 33.91304344-9.74608687 41.30086969-24.8556525l108.70956562-222.30260906 249.76695656-36.5843475c16.94608687-2.5043475 30.84521719-13.60695656 36.22956563-28.88347781C953.24697406 495.13739093 949.28175687 478.69217375 937.67827906 467.2556525zM509.22610531 530.65739093c-42.74086969 0-77.1756525-13.04347781-102.30260906-38.73391312-41.94782625-42.88695656-41.05043437-105.18260906-40.98782625-107.83304344 0.25043437-11.35304344 9.53739094-20.36869594 20.84869594-20.36869594 0.12521719 0 0.27130406 0 0.39652219 0 11.49913031 0.20869594 20.64 9.72521719 20.47304343 21.2243475 0 0.48-0.3756525 47.87478281 29.30086969 77.98956563 16.96695656 17.23826063 41.30086969 25.96173938 72.25043438 25.96173937 11.52 0 20.86956562 9.34956563 20.86956562 20.86956563S520.74610531 530.65739093 509.22610531 530.65739093z"  horiz-adv-x="1025" />

    
    <glyph glyph-name="remen4" unicode="&#59119;" d="M540.111537 283.125448c-23.107674 0-42.665572-29.114986-42.665571-63.930093 0-34.610312 19.557898-63.89596 42.665571-63.89596s42.699704 29.183251 42.699704 63.964225c0 34.746841-19.557898 63.930092-42.665571 63.930093l-0.034133-0.068265z m248.313627 431.195332a31.162933 31.162933 0 0 1-29.900033 9.625353c-10.854121-2.594067-19.796825-10.922386-23.89272-22.254362a1688.737456 1688.737456 0 0 1-25.360416-80.996321c-10.922386 22.663952-23.210071 44.406327-36.863053 65.192994-50.379507 76.763896-119.4636 141.922757-217.355488 205.067803a30.958139 30.958139 0 0 1-31.572523 1.331166 36.180405 36.180405 0 0 1-17.953673-28.32994C391.908408 730.636095 366.855184 595.505697 281.250981 500.378538l-11.366108 24.234045c-10.00081 20.957329-19.353103 40.685889-25.360416 57.581455-6.485167 18.602189-25.496946 27.92035-42.460777 20.820799a34.16659 34.16659 0 0 1-17.544083-17.305156l-6.894756-14.676956C135.607786 481.947011 78.162861 359.752814 69.493216 256.433866c-17.987805-218.993846 163.869927-356.615914 352.997874-379.48466 41.5392-5.017471 83.283196-6.143842 124.993058-3.583908 148.715116 9.693618 329.378213 93.079211 390.270516 298.317677 39.422988 133.218981 24.02925 355.148218-149.3295 542.70607v-0.034132zM400.851112 120.211229c0-17.305156-12.936201-31.401861-28.841927-31.40186-15.871593-0.068265-28.739529 13.994307-28.807794 31.40186v71.336836l-59.390475-1.023974v-72.053617c0-17.271023-12.936201-31.401861-28.841927-31.401861-15.83746-0.068265-28.773661 13.994307-28.841926 31.401861v192.882516c0 17.339288 12.902069 31.401861 28.841926 31.401861 15.905725 0 28.807794-14.062572 28.807794-31.401861v-57.991045l59.424608 0.989841v58.707827c0 17.339288 12.902069 31.435993 28.807794 31.435993 15.905725 0 28.807794-14.096705 28.807794-31.401861v-192.848383h0.034133z m139.260425-27.579025c-55.294581 0-100.212895 56.864674-100.212894 126.733814s44.918314 126.733814 100.212894 126.733813c55.294581 0 100.349424-56.864674 100.349425-126.733813-0.068265-69.86914-45.054844-126.733814-100.349425-126.733814z m261.249828 183.735017h-36.624126v-154.449369c0-17.305156-12.867936-31.401861-28.773662-31.401861-15.871593-0.068265-28.773661 13.994307-28.876059 31.401861v154.449369h-36.555862a26.964641 26.964641 0 0 0-20.274679 9.181631 34.268987 34.268987 0 0 0-8.533114 22.322627c0 17.339288 12.902069 31.401861 28.807793 31.401861h130.727312c15.905725 0 28.773661-14.062572 28.773661-31.401861a33.722868 33.722868 0 0 0-8.533114-22.322627 26.384389 26.384389 0 0 0-20.13815-9.215763z"  horiz-adv-x="1024" />

    
    <glyph glyph-name="yule" unicode="&#58923;" d="M965.86666667 563.6266666700001c-4.48 8.42666667-13.22666667 13.65333333-22.72 13.65333333H667.84l-133.33333333 259.09333333c-4.37333333 8.64-13.22666667 13.97333333-22.93333334 13.97333334s-18.56-5.44-22.93333333-13.97333334l-133.33333333-259.09333333H80c-9.49333333 0-18.24-5.22666667-22.72-13.65333333-4.48-8.32-4.05333333-18.56 1.28-26.45333334l179.09333333-269.33333333-98.24-313.28c-2.98666667-9.49333333-0.32-19.73333333 6.93333334-26.45333333 7.14666667-6.82666667 17.6-8.85333333 26.88-5.33333334L511.57333333 51.200000000000045l338.45333334-128.42666667c2.98666667-1.17333333 6.08-1.70666667 9.17333333-1.70666666 6.50666667 0 12.8 2.45333333 17.70666667 7.04 7.14666667 6.72 9.92 17.06666667 6.93333333 26.45333333l-98.24 313.28 179.09333333 269.33333333c5.22666667 7.89333333 5.65333333 18.13333333 1.17333334 26.45333334zM735.68 286.18666667c-4.37333333-6.50666667-5.44-14.61333333-3.09333333-21.97333334l86.08-274.34666666-297.92 113.06666666c-2.98666667 1.06666667-6.08 1.70666667-9.17333334 1.70666667-3.09333333 0-6.18666667-0.53333333-9.17333333-1.70666667l-297.92-113.06666666 86.08 274.34666666c2.34666667 7.46666667 1.17333333 15.57333333-3.09333333 21.97333334L128.21333333 525.65333333h242.88c9.70666667 0 18.56 5.44 22.93333334 13.97333334l117.54666666 228.48 117.54666667-228.48c4.37333333-8.64 13.22666667-13.97333333 22.93333333-13.97333334H894.93333333L735.68 286.18666667zM391.89333333 412.37333333c0 17.06666667-13.86666667 30.93333333-30.93333333 30.93333334s-30.93333333-13.86666667-30.93333333-30.93333334 13.86666667-30.93333333 30.93333333-30.93333333 30.93333333 13.86666667 30.93333333 30.93333333z m239.36 0c0-17.06666667 13.86666667-30.93333333 30.93333334-30.93333333s30.93333333 13.86666667 30.93333333 30.93333333-13.86666667 30.93333333-30.93333333 30.93333334c-17.17333333 0-30.93333333-13.86666667-30.93333334-30.93333334zM660.8 290.13333333c-12.48 6.82666667-28.16 2.24-34.98666667-10.34666666-22.82666667-41.92-66.56-67.84-114.13333333-67.84s-91.41333333 26.02666667-114.13333333 67.84c-6.82666667 12.48-22.50666667 17.06666667-34.98666667 10.34666666-12.48-6.82666667-17.17333333-22.50666667-10.34666667-34.98666666 31.89333333-58.45333333 93.01333333-94.82666667 159.46666667-94.82666667s127.68 36.37333333 159.46666667 94.82666667c6.72 12.48 2.13333333 28.16-10.34666667 34.98666666z"  horiz-adv-x="1024" />

    
    <glyph glyph-name="yule1" unicode="&#59221;" d="M634.88 313.44000000000005L734.72 403.2c3.84 3.36 6.24 8.16 6.72 13.44 0.96 11.52-7.2 21.6-18.72 23.04l-132 12.96-53.76 121.44c-1.92 5.28-5.76 9.6-11.04 12-10.56 4.8-23.04 0-27.36-11.04L444.8 453.6l-133.44-13.92c-4.8-0.48-10.08-2.88-13.44-6.72-7.68-8.64-6.72-21.6 1.92-29.28l98.88-87.84-27.84-131.04c-0.96-4.8-0.48-10.08 2.4-14.88 5.76-10.08 18.72-13.44 28.8-7.68l114.24 67.2 115.2-66.72c4.8-2.88 10.08-4.32 15.84-2.88 11.52 2.4 18.24 13.92 15.84 24.96l-28.32 128.64z m-43.68 2.88l20.64-95.04-85.44 49.44c-7.2 4.32-15.84 3.36-22.08-0.48l-83.04-48.48 20.64 96.48c1.92 8.16-1.44 16.32-7.68 21.12L363.2 402.72 461.6 412.8c7.68 0.96 14.4 5.76 17.28 12.48l38.88 88.8 40.32-90.24c3.36-7.2 9.6-11.52 16.8-12.48l96.48-9.6-73.44-66.24c-5.76-4.32-8.16-12-6.72-19.2zM502.4 682.56c8.16-8.16 21.6-8.16 29.76 0l58.56 58.56c8.16 8.16 8.16 21.6 0 29.76L532.16 829.44c-8.16 8.16-21.6 8.16-29.76 0L443.84 770.88c-8.16-8.16-8.16-21.6 0-29.76L502.4 682.56z m14.88 102.24l28.8-28.8-28.8-28.8-28.8 28.8 28.8 28.8zM179.84 315.84000000000003c14.4 14.4 23.52 34.56 23.52 57.12 0 22.08-9.12 42.24-23.52 57.12-14.4 14.4-34.56 23.52-57.12 23.52-22.08 0-42.24-9.12-57.12-23.52-14.4-14.4-23.52-34.56-23.52-57.12 0-22.08 9.12-42.24 23.52-57.12 14.4-14.4 34.56-23.52 57.12-23.52s42.72 9.12 57.12 23.52z m-95.52 57.12c0 10.56 4.32 20.16 11.52 27.36s16.8 11.52 27.36 11.52 20.16-4.32 27.36-11.04c6.72-7.2 11.04-16.8 11.04-27.36s-4.32-20.16-11.04-27.36c-7.2-6.72-16.8-11.04-27.36-11.04s-20.16 4.32-27.36 11.52c-7.2 6.24-11.52 15.84-11.52 26.4zM830.72 372.96000000000004c0-22.08 9.12-42.24 23.52-57.12 14.4-14.4 34.56-23.52 57.12-23.52 22.08 0 42.24 9.12 57.12 23.52 14.4 14.4 23.52 34.56 23.52 57.12 0 22.08-9.12 42.24-23.52 57.12-14.4 14.4-34.56 23.52-57.12 23.52-22.08 0-42.24-9.12-57.12-23.52-14.4-14.88-23.52-35.04-23.52-57.12z m53.28 27.36c7.2 7.2 16.8 11.52 27.36 11.52s20.16-4.32 27.36-11.04c6.72-7.2 11.04-16.8 11.04-27.36s-4.32-20.16-11.04-27.36c-7.2-6.72-16.8-11.04-27.36-11.04s-20.16 4.32-27.36 11.52-11.52 16.8-11.52 27.36c0.48 9.6 4.8 19.68 11.52 26.4zM532.16 80.15999999999997c-8.16 8.16-21.6 8.16-29.76 0l-58.56-58.56c-8.16-8.16-8.16-21.6 0-29.76 8.16-8.16 21.6-8.16 29.76 0l43.68 43.68 43.68-43.68c8.16-8.16 21.6-8.16 29.76 0 8.16 8.16 8.16 21.6 0 29.76l-58.56 58.56zM705.92 112.32000000000005c-8.16 8.16-21.6 8.16-29.76 0-8.16-8.16-8.16-21.6 0-29.76l144.96-144c8.16-8.16 21.6-8.16 29.76 0 8.16 8.16 8.16 21.6 0 29.76l-144.96 144zM269.6 517.44c8.16 8.16 8.16 21.6 0 29.76L67.52 747.84c-8.16 8.16-21.6 8.16-29.76 0-8.16-8.16-8.16-21.6 0-29.76l202.08-201.12c8.64-7.68 21.6-7.68 29.76 0.48zM156.8 209.27999999999997c-8.16 8.16-21.6 8.16-29.76 0-8.16-8.16-8.16-21.6 0-29.76l150.24-150.24c8.16-8.16 21.6-8.16 29.76 0 8.16 8.16 8.16 21.6 0 29.76L156.8 209.27999999999997zM107.36 72.48000000000002c-8.16 8.16-21.6 8.16-29.76 0-8.16-8.16-8.16-21.6 0-29.76l73.92-73.92c8.16-8.16 21.6-8.16 29.76 0 8.16 8.16 8.16 21.6 0 29.76l-73.92 73.92zM868.16 216.48000000000002c-8.16 8.16-21.6 8.16-29.76 0-8.16-8.16-8.16-21.6 0-29.76l106.56-106.56c8.16-8.16 21.6-8.16 29.76 0 8.16 8.16 8.16 21.6 0 29.76l-106.56 106.56zM344.48 680.64c8.16-8.16 21.6-8.16 29.76 0 8.16 8.16 8.16 21.6 0 29.76l-76.8 76.8c-8.16 8.16-21.6 8.16-29.76 0-8.16-8.16-8.16-21.6 0-29.76l76.8-76.8zM816.32 541.9200000000001c8.16-8.16 21.6-8.16 29.76 0 8.16 8.16 8.16 21.6 0 29.76l-76.8 77.76 91.68 91.68c8.16 8.16 8.16 21.6 0 29.76-8.16 8.16-21.6 8.16-29.76 0l-106.08-106.56c-8.16-8.16-8.16-21.12 0-29.28l91.2-93.12z"  horiz-adv-x="1024" />

    
    <glyph glyph-name="paihang" unicode="&#59870;" d="M881 85.46666667v261c0 29.7-24.3 54-54 54h-171v261c0 29.7-24.3 54-54 54H422c-29.7 0-54-24.3-54-54v-103.5H197c-29.7 0-54-24.3-54-54v-418.5H62v-63h900v63h-81zM206 474.71666667c0 8.1 0 16.2 1.8 18 0.45 0.45 2.7 2.25 11.7 2.25h148.5v-409.5H206V468.86666667v5.85z m225-389.25v553.5c0 7.65 5.85 13.5 13.5 13.5h135c7.65 0 13.5-5.85 13.5-13.5v-553.5H431z m225 0v252h148.5c4.5 0 8.1-0.9 9.9-2.7 4.05-4.05 4.05-15.3 3.6-27.45v-221.85h-162z"  horiz-adv-x="1024" />

    
    <glyph glyph-name="tongbu" unicode="&#58880;" d="M468.33781317 835.61569596l-0.91135494-0.12427568a39.22968779 39.22968779 0 0 1-8.78214764-0.37282703c-3.23116752-0.53852791-6.29663415-1.44988286-9.48637646-2.07126123l-2.73406482-0.62137838a449.04943565 449.04943565 0 0 1-361.51793588-441.38576909c0-215.99112155 153.77043405-402.11465609 365.5776079-442.54567537a37.98693104 37.98693104 0 0 1 43.82788774 46.23055076c-2.98261618 14.45740341-15.24448269 25.02083571-29.74331134 27.75490055-176.26433106 33.76155813-304.26827536 188.7333237-304.26827536 368.60164929 0 52.81716148 10.97768453 103.27308515 30.82036718 149.17223412 7.08371342 16.36296375 17.64714572 14.08457639 23.81950419 2.15411168 5.13672786-9.98347915 23.73665375-49.95882098 37.11700132-76.55381523 8.28504494-16.48723943 15.86586107-22.03821954 23.23955105-22.03821953 9.65207735 0 17.19146825 9.03069899 21.16828982 24.150906C352.72001106 681.5138601 487.97336969 764.69571127 488.59474805 765.10996353a37.61410402 37.61410402 0 1 1-20.25693488 70.50573243z m140.47293693-887.74256514l0.91135495 0.12427567c2.8583405-0.1657009 5.79953147-0.12427568 8.74072242 0.37282701 3.23116752 0.53852791 6.29663415 1.44988286 9.48637644 2.07126124l2.73406484 0.57995315a449.04943565 449.04943565 0 0 1 361.51793587 441.38576908c0 215.99112155-153.77043405 402.11465609-365.57760791 442.54567538a37.98693104 37.98693104 0 0 1-43.82788772-46.23055076c2.98261618-14.45740341 15.24448269-25.02083571 29.74331133-27.75490053 176.34718151-33.67870768 304.35112581-188.69189847 304.35112581-368.56022409a375.10540958 375.10540958 0 0 0-30.82036716-149.1722341c-7.08371342-16.36296375-17.64714572-14.08457639-23.81950421-2.15411168-5.13672786 9.98347915-23.73665375 49.95882098-37.11700132 76.55381522-8.28504494 16.48723943-15.86586107 22.03821954-23.23955104 22.03821953-9.65207735 0-17.19146825-9.03069899-21.16828983-24.15090598-56.25545513-213.54703328-191.50881375-296.72888446-192.13019212-297.14313672a37.69695447 37.69695447 0 0 1-17.89569707-43.28935981 37.53125357 37.53125357 0 0 1 38.11120672-27.21637261z"  horiz-adv-x="1024" />

    
    <glyph glyph-name="iconfonticonshutiao" unicode="&#58897;" d="M925.326 896h112v-1024h-112v1024z"  horiz-adv-x="1024" />

    
    <glyph glyph-name="shuxian" unicode="&#58936;" d="M66.56000006 768h61.44v-768H66.56000006zM128.00000006 768h61.44v-768h-61.44z"  horiz-adv-x="1024" />

    
    <glyph glyph-name="left" unicode="&#59871;" d="M723.704656-64.18457899999999L267.763416 382.52541599000006 723.704656 829.234387 759.143797 794.54021401 338.49229399 382.52541599999995 759.143797-29.490406010000015Z"  horiz-adv-x="1024" />

    
    <glyph glyph-name="right" unicode="&#58974;" d="M300.295344 832.184579L756.236584 385.474584 300.295344-61.23438699999997 264.856203-26.54021401 685.50770601 385.474584 264.856203 797.49040601Z"  horiz-adv-x="1024" />

    
    <glyph glyph-name="liuyan1" unicode="&#58958;" d="M512 804.571429C229.302857 804.571429 0 616.411429 0 384a374.674286 374.674286 0 0 1 111.177143-261.302857 470.125714 470.125714 0 0 0-103.497143-118.674286 23.405714 23.405714 0 0 1 18.285714-40.228571c82.285714-3.657143 183.954286 15.542857 272.822857 38.217143A603.428571 603.428571 0 0 1 512-36.571428999999966c282.697143 0 512 188.342857 512 420.571429S794.697143 804.571429 512 804.571429zM274.285714 575.634286a18.285714 18.285714 0 0 0 18.285715 18.285714h219.428571a18.285714 18.285714 0 0 0 18.285714-18.285714v-36.571429a18.285714 18.285714 0 0 0-18.285714-18.285714H292.571429a18.285714 18.285714 0 0 0-18.285715 18.285714z m475.428572-347.428572a18.285714 18.285714 0 0 0-18.285715-18.285714H292.571429a18.285714 18.285714 0 0 0-18.285715 18.285714v36.571429a18.285714 18.285714 0 0 0 18.285715 18.285714h438.857142a18.285714 18.285714 0 0 0 18.285715-18.285714zM749.714286 384a18.285714 18.285714 0 0 0-18.285715-18.285714H292.571429a18.285714 18.285714 0 0 0-18.285715 18.285714v36.571429a18.285714 18.285714 0 0 0 18.285715 18.285714h438.857142a18.285714 18.285714 0 0 0 18.285715-18.285714z"  horiz-adv-x="1024" />

    
    <glyph glyph-name="weixin2" unicode="&#58972;" d="M558.755355 216.027057c0-165.086809 162.777903-299.003382 362.498309-299.003382 48.487035 0 95.819617 8.081172 137.379932 21.934611 11.544532-5.772266 94.665163-77.348365 113.136415-64.64938 12.698985 10.390079-30.015784 87.738444-33.479143 101.591883 87.738444 54.259301 145.461105 141.997745 145.461105 240.126268 0 165.086809-162.777903 299.003382-362.498309 299.003383S558.755355 381.113867 558.755355 216.027057z m438.692221 105.055243c0 28.86133 23.089064 51.950395 51.950395 51.950394s51.950395-23.089064 51.950394-51.950394-23.089064-51.950395-51.950394-51.950395-51.950395 23.089064-51.950395 51.950395z m-255.13416 0c0 28.86133 23.089064 51.950395 51.950395 51.950394s51.950395-23.089064 51.950394-51.950394-23.089064-51.950395-51.950394-51.950395-51.950395 23.089064-51.950395 51.950395zM526.430665 218.335964c0 180.094701 177.785795 325.555806 395.977452 325.555806 11.544532 0 23.089064 0 33.479143-1.154453C931.643743 741.303269 727.305524 896 479.098083 896 214.728298 896 0 719.368658 0 501.177001c0-129.29876 76.193912-244.744081 192.793687-316.32018-4.617813-17.316798-60.031567-120.063134-43.869223-133.916573 24.243517-16.162345 133.916573 78.502818 148.924465 85.429538 55.413754-18.471251 116.599775-28.86133 181.249154-28.861331 23.089064 0 46.178129 1.154453 69.267193 4.617813-13.853439 32.32469-21.934611 68.11274-21.934611 106.209696zM646.493799 711.287486c38.096956 0 69.267193-31.170237 69.267193-69.267193 1.154453-38.096956-30.015784-69.267193-69.267193-69.267193-38.096956 0-69.267193 31.170237-69.267192 69.267193s31.170237 69.267193 69.267192 69.267193zM310.547914 572.7531c-38.096956 0-69.267193 31.170237-69.267192 69.267193s31.170237 69.267193 69.267192 69.267193 69.267193-31.170237 69.267193-69.267193-31.170237-69.267193-69.267193-69.267193z"  horiz-adv-x="1284" />

    
    <glyph glyph-name="erweima" unicode="&#58963;" d="M418.037 357.154H64.56a63.92 63.92 0 0 1-63.92-63.92v-356.035a63.92 63.92 0 0 1 63.92-63.92h353.478a63.92 63.92 0 0 1 63.92 63.92V293.23299999999995a63.92 63.92 0 0 1-63.92 63.92z m0-419.955H64.56V293.23299999999995h353.478zM145.418 211.096h191.76v-191.76h-191.76zM418.038 896H64.558A63.92 63.92 0 0 1 0.64 832.08v-347.086a63.92 63.92 0 0 1 63.92-63.92h353.478a63.92 63.92 0 0 1 63.92 63.92V832.08A63.92 63.92 0 0 1 418.038 896z m0-411.006H64.558V832.08h353.478zM145.418 754.417h191.76v-191.76h-191.76z m845.983-396.305H577.518a31.96 31.96 0 0 1-29.723-40.589v-412.285a31.96 31.96 0 0 1 63.92 0V294.192h379.686a31.96 31.96 0 0 1 0 63.92zM959.44 896H609.798a63.92 63.92 0 0 1-63.92-63.92v-347.086a63.92 63.92 0 0 1 63.92-63.92H959.44a63.92 63.92 0 0 1 63.92 63.92V832.08A63.92 63.92 0 0 1 959.44 896z m0-411.006H609.798V832.08H959.44zM688.74 754.417H880.5v-191.76H688.74z m250.885-527.021h82.457v-82.457h-82.457z m-220.204 0h-82.457v-82.457h82.457v-162.996h82.457V145.25800000000004H719.42v82.138z m-82.457-272.62h82.457v-82.456h-82.457z m181.533 231.71h82.457v-82.456h-82.457z m-65.838 94.922h82.457v-82.457H752.66zM815.62-40.110000000000014h82.457v-82.457H815.62z m124.005 55.93h82.457V-128h-82.457z"  horiz-adv-x="1024" />

    
    <glyph glyph-name="weixin1" unicode="&#59187;" d="M86.176896 104.010051a21.240784 21.240784 0 0 0-19.541522 29.567172l61.246284 143.648389c-37.626532 31.205746-67.788446 67.31508-89.636109 107.526919C12.914397 431.470118 0 481.331342 0 532.940379c0 49.594197 11.906977 97.646919 35.405353 142.847308 22.503094 43.294787 54.619159 82.098665 95.47429 115.307114C214.010004 858.749733 324.26788 896 441.371358 896s227.324941-37.250267 310.443164-104.868786c40.842994-33.232724 72.971197-72.036602 95.474291-115.307114 23.498376-45.200389 35.405353-93.253111 35.405353-142.847308h-42.481569C840.212597 709.700116 661.280231 853.518432 441.371358 853.518432S42.481568 709.700116 42.481568 532.940379c0-44.447858 11.130171-87.487756 33.099211-127.905934 21.422848-39.447171 52.070265-74.573359 91.031932-104.383282a21.240784 21.240784 0 0 0 6.639263-25.209777l-45.940782-107.745395 146.670649 67.836996a21.252922 21.252922 0 0 0 15.66963 0.91032 481.291895 481.291895 0 0 1 151.719887-24.056706 500.372188 500.372188 0 0 1 53.793803 2.900884l4.58801-42.226679a543.011545 543.011545 0 0 0-58.381813-3.143636 524.902259 524.902259 0 0 0-157.011877 23.607615L95.085888 105.964204a21.216509 21.216509 0 0 0-8.908992-1.954153zM1151.578219-128a21.204371 21.204371 0 0 0-8.908992 1.96629L980.984378-51.2176a454.504232 454.504232 0 0 0-134.800086-20.09985c-101.37316-0.036413-196.835313 32.237442-268.871915 90.813455-35.441766 28.838916-63.321812 62.508594-82.851196 100.098713a265.958893 265.958893 0 0 0 0 248.407937c19.541521 37.626532 47.421568 71.271934 82.851196 100.098713 72.00019 58.588152 167.498755 90.849868 268.835502 90.849868s196.859588-32.261717 268.859778-90.849868c35.441766-28.838916 63.321812-62.508594 82.851196-100.098713a266.929901 266.929901 0 0 0 30.780931-124.203968c0-44.909087-11.190859-88.228149-33.244862-128.840529-18.631202-34.300832-44.192969-65.166726-76.07842-91.905838l51.803238-121.485148a21.240784 21.240784 0 0 0-19.541521-29.567172z m-169.198018 120.732617a21.228647 21.228647 0 0 0 8.921129-1.966289l119.094043-55.080388-36.412773 85.521466a21.240784 21.240784 0 0 0 6.639262 25.209776c33.208449 25.379703 59.292132 55.262452 77.510656 88.810753 18.64334 34.325107 28.098523 70.847119 28.098523 108.558614 0 150.348339-152.520968 272.670981-339.998198 272.670981S506.186094 394.159164 506.186094 243.798687 658.707062-28.872295 846.172155-28.872295a410.857454 410.857454 0 0 1 129.520233 20.524667 21.228647 21.228647 0 0 0 6.687813 1.080245zM276.542873 680.169357m-45.916507 0a45.916507 45.916507 0 1 1 91.833013 0 45.916507 45.916507 0 1 1-91.833013 0ZM537.319015 680.169357m-45.916507 0a45.916507 45.916507 0 1 1 91.833013 0 45.916507 45.916507 0 1 1-91.833013 0ZM715.790152 386.002703m-45.916506 0a45.916507 45.916507 0 1 1 91.833013 0 45.916507 45.916507 0 1 1-91.833013 0ZM976.566294 386.002703m-45.916506 0a45.916507 45.916507 0 1 1 91.833013 0 45.916507 45.916507 0 1 1-91.833013 0Z"  horiz-adv-x="1228" />

    
    <glyph glyph-name="shijian" unicode="&#58911;" d="M509.71798187-109.36428497999998c-132.08011481 0-256.26786141 51.42023737-349.6908967 144.78738622-93.40316452 93.46153404-144.83085358 217.69398955-144.80725697 349.81384585 0 132.13724277 51.45376874 256.35603646 144.88425571 349.77534589 93.40689036 93.39943868 217.60208865 144.83706251 349.70828314 144.83706251 132.10867879 0 256.32623092-51.43389798 349.77907174-144.82712772 192.81222892-192.87556581 192.81222892-506.67015858-0.0024843-699.5010155C766.09513184-57.909273480000024 641.84404711-109.36428497999998 509.71798187-109.36428497999998zM509.81236705 821.96619446c-116.65801701 0-226.32653953-45.41185319-308.80333824-127.87126545-82.48797625-82.45568641-127.91721589-192.14283571-127.91721589-308.85674037-0.01738646-116.70521022 45.38701505-226.40105396 127.84766885-308.87661114C283.44484447-6.112736909999967 393.10467254-51.532041779999986 509.71798187-51.532041779999986c116.67913053 0 226.39732812 45.45407901 308.94367387 127.98800569 170.2689918 170.25408963 170.2689918 447.32278011 0 617.63275616C736.16871212 776.55185696 626.4840459 821.96619446 509.81236705 821.96619446zM711.07334175 189.25783662000003c-6.0617863 0-12.10121755 1.7126001-17.9493929 5.08936677l-171.16813843 103.74583031c-0.95379031 0.55016865-1.92372554 1.09164286-2.94457982 1.65919797-5.14028461 2.8626137-12.17697351 6.78209612-14.62851386 10.47430819l-0.45826655 0.69174704-0.72031103 0.41479919c-24.64703981 14.13919903-29.82085579 25.42075297-29.82085579 32.39658686L473.38328215 634.30418614c0 20.94861759 17.03782841 37.99141339 37.98023586 37.99141338 20.95234343 0 37.9976223-17.04279579 37.99762231-37.99141338l0-273.59132968 172.18526686-99.57672247 0-0.00496739 1.76351915-1.02085427c9.06721994-5.22225194 16.26659954-13.72936723 19.75141201-23.33681982 3.6139718-9.96015643 2.92346751-20.08672817-1.94483905-28.5205718-6.96838341-12.07016926-17.91834582-18.99508531-30.03943291-18.99508531C711.07582483 189.25783662000003 711.07582483 189.25783662000003 711.07334175 189.25783662000003z"  horiz-adv-x="1024" />

    
    <glyph glyph-name="up" unicode="&#59648;" d="M63.81542101 214.96201066000003L510.52541599 670.90325066 957.234387 214.96201065000002 922.54021402 179.52286965999997 510.525416 600.17437267 98.50959399 179.52286964999996Z"  horiz-adv-x="1024" />

    
    <glyph glyph-name="guestbook" unicode="&#59208;" d="M512 830.4639999999999C230.4 830.4639999999999 2.048 638.976 2.048 403.456c0-99.328 39.936-190.464 107.52-262.144l0 0c0 0-5.12-180.224-43.008-203.776 0 0 138.24 0 226.304 79.872 66.56-26.624 140.288-40.96 219.136-40.96 281.6 0 509.952 191.488 509.952 427.008C1021.952 638.976 793.6 830.4639999999999 512 830.4639999999999zM512 17.408000000000015c-71.68 0-140.288 13.312-203.776 37.888-5.12 2.048-10.24 3.072-15.36 3.072-10.24 0-19.456-4.096-27.648-10.24-38.912-35.84-91.136-53.248-132.096-61.44 4.096 16.384 7.168 34.816 9.216 56.32 5.12 39.936 7.168 77.824 7.168 92.16 2.048 12.288-2.048 24.576-10.24 33.792-63.488 67.584-97.28 148.48-97.28 234.496 0 212.992 210.944 386.048 468.992 386.048 259.072 0 468.992-173.056 468.992-386.048C980.992 190.46400000000006 771.072 17.408000000000015 512 17.408000000000015zM705.536 561.152L318.464 561.152c-11.264 0-20.48-9.216-20.48-20.48s9.216-20.48 20.48-20.48l387.072 0c11.264 0 20.48 9.216 20.48 20.48S716.8 561.152 705.536 561.152zM705.536 404.48L318.464 404.48c-11.264 0-20.48-9.216-20.48-20.48s9.216-20.48 20.48-20.48l387.072 0c11.264 0 20.48 9.216 20.48 20.48S716.8 404.48 705.536 404.48zM705.536 247.808L318.464 247.808c-11.264 0-20.48-9.216-20.48-20.48s9.216-20.48 20.48-20.48l387.072 0c11.264 0 20.48 9.216 20.48 20.48S716.8 247.808 705.536 247.808z"  horiz-adv-x="1024" />

    
    <glyph glyph-name="juji" unicode="&#58910;" d="M828.544 88.085c0 12.672-10.24 22.912-22.912 22.912s-22.912-10.24-22.912-22.912c0-12.672 10.24-22.912 22.912-22.912s22.912 10.24 22.912 22.912zM389.248 356.309c-31.616-23.296-53.12-43.52-64.64-60.672-11.456-17.152-18.368-35.392-20.608-54.848h197.632v53.44h-102.848c6.016 5.888 11.264 10.688 15.744 14.336s13.312 10.048 26.624 19.2c22.336 15.68 37.696 30.080 46.144 43.2s12.672 26.816 12.672 41.216c0 13.504-3.712 25.728-11.072 36.672-7.296 10.88-17.472 19.008-30.336 24.256s-30.912 7.872-54.080 7.872c-22.208 0-39.616-2.752-52.16-8.32-12.608-5.504-22.336-13.44-29.248-23.808-6.848-10.368-11.648-24.768-14.208-43.264l65.984-5.312c1.856 13.312 5.44 22.592 10.752 27.904 5.376 5.248 12.224 7.872 20.608 7.872 8.064 0 14.784-2.56 20.16-7.68 5.312-5.12 8-11.264 8-18.432 0-6.656-2.688-13.696-8.064-21.12-5.44-7.424-17.728-18.24-37.056-32.512zM698.816 363.029c-4.864 3.008-11.84 5.632-21.056 7.872 11.328 6.208 19.776 13.504 25.408 21.76s8.384 17.472 8.384 27.712c0 17.408-6.912 31.872-20.672 43.328-13.824 11.52-36.16 17.216-67.136 17.216-26.944 0.064-47.744-5.184-62.464-15.744-14.72-10.496-24.64-25.664-29.824-45.44l62.272-11.136c1.728 11.712 4.992 19.904 9.856 24.576s11.136 6.976 18.944 6.976c7.552 0 13.504-2.176 17.792-6.464s6.464-10.048 6.464-17.216c0-7.488-2.88-14.016-8.64-19.52-5.824-5.376-13.056-8.128-21.632-8.128-2.048 0-4.928 0.256-8.576 0.832l-3.392-46.912c9.088 2.56 16.192 3.84 21.376 3.84 9.728 0 17.408-3.008 23.040-9.024s8.512-14.528 8.512-25.472c0-10.752-2.944-19.328-8.832-25.792-5.952-6.4-13.248-9.6-22.144-9.6-8.384 0-15.36 2.56-20.8 7.68-5.376 5.056-9.408 14.208-12.032 27.456l-65.792-8.704c4.288-14.72 10.496-26.944 18.496-36.672s18.304-17.088 30.72-22.144 29.44-7.552 51.008-7.552c22.080 0 39.936 3.392 53.568 10.24 13.568 6.848 24 16.512 31.232 29.184 7.232 12.608 10.816 25.792 10.816 39.552 0 10.944-2.176 20.352-6.528 28.288s-10.496 14.208-18.368 19.008zM771.456 174.037v12.096c0 3.52-2.816 6.336-6.336 6.336h-517.312c-3.52 0-6.336-2.816-6.336-6.336v-12.096c0-3.52 2.816-6.336 6.336-6.336h517.312c3.52 0 6.336 2.816 6.336 6.336zM247.808 134.677c-3.52 0-6.336-2.816-6.336-6.336v-12.096c0-3.52 2.816-6.336 6.336-6.336h446.976c3.52 0 6.336 2.816 6.336 6.336v12.096c0 3.52-2.816 6.336-6.336 6.336h-446.976zM869.312 634.645h-96.512c-13.376 0-24.192-10.816-24.192-24.192s10.816-24.192 24.192-24.192h96.512c26.688 0 48.384-21.696 48.384-48.384v-483.776c0-26.688-21.696-48.384-48.384-48.384h-725.696c-26.688 0-48.384 21.696-48.384 48.384v483.776c0 26.688 21.696 48.384 48.384 48.384h411.136c6.4 0 12.544 2.56 17.088 7.104l217.792 217.728c9.472 9.472 9.472 24.768 0 34.176-4.736 4.736-10.944 7.104-17.088 7.104-6.208 0-12.352-2.368-17.088-7.104l-210.688-210.624h-401.152c-53.376 0-96.768-43.392-96.768-96.768v-483.776c0-53.376 43.392-96.768 96.768-96.768h725.696c53.376 0 96.768 43.392 96.768 96.768v483.776c-0.064 53.376-43.456 96.768-96.768 96.768zM491.904 686.357c8.896-9.024 23.424-9.088 32.384-0.192l1.92 1.92c9.024 8.896 9.088 23.424 0.192 32.384l-121.344 122.624c-8.896 9.024-23.36 9.088-32.384 0.192l-1.92-1.92c-8.96-8.832-9.088-23.36-0.192-32.384l121.344-122.624z"  horiz-adv-x="1024" />

    
    <glyph glyph-name="atm" unicode="&#59066;" d="M769.56097625 256.5C788.95829375 256.5 804.68292594 298.58523375000004 804.68292594 350.50000031 804.68292594 402.41476594 788.95829375 444.49999969 769.56097625 444.49999969 750.16365781 444.49999969 734.43902375 402.41476594 734.43902375 350.50000031 734.43902375 298.58523375000004 750.16365781 256.5 769.56097625 256.5ZM465.17073219 209.50000031000002C484.56804969 209.50000031000002 500.29268187 246.32458031 500.29268187 291.75 500.29268187 337.17542156 484.56804969 373.99999969 465.17073219 373.99999969 445.77341375 373.99999969 430.04877969 337.17542156 430.04877969 291.75 430.04877969 246.32458031 445.77341375 209.50000031000002 465.17073219 209.50000031000002ZM32 327C32 92.61194437999995 247.56308844-96 512-96 776.43691156-96 992 92.61194437999995 992 327 992 561.3880556199999 776.43691156 750.0000009400001 512 750.0000009400001 515.42157969 750.0000009400001 516.63755188 749.45320031 516.56192844 749.50870031 514.56511156 750.9741300000001 512.28312969 752.9728275 506.17781375 758.5569262500001 489.19538844 774.08954156 478.56895812 782.80923281 462.13633625 793.31844281 411.63857187 825.61344844 345.40222813 844.00000031 254.43902375 844.00000031 241.50747969 844.00000031 231.02439031 833.47869187 231.02439031 820.5 231.02439031 807.52130812 241.50747969 796.99999969 254.43902375 796.99999969 336.69994438 796.99999969 394.19039187 781.04122219 436.97105844 753.68155781 448.32399219 746.42097844 495.79787 703.00000031 512 703.00000031 751.89335562 703.00000031 945.17073219 533.88745969 945.17073219 327 945.17073219 120.11254219 751.89335562-49.00000031000002 512-49.00000031000002 272.10664438-49.00000031000002 78.82926781 120.11254219 78.82926781 327 78.82926781 463.65952031 163.75293688 587.94159844 298.94898406 654.41520187 310.56186031 660.12505594 315.36401844 674.2022240599999 309.67490563 685.85743781 303.98579375 697.51265156 289.95976156 702.33231844 278.34688625 696.62246437 127.75462625 622.57880156 32 482.44609406 32 327Z"  horiz-adv-x="1024" />

    
    <glyph glyph-name="dongman" unicode="&#58999;" d="M958.88 735.76666666c-37.8 49.32-100.14 72.84-162.12 62.16-53.88-9.54-96-43.56-118.2-91.2C580.7 746.86666666 461.9 747.76666666 344.66 708.88666666c-23.4 48.42-67.26 82.08-122.52 90C159.86 807.58666666 98.3 781.96666666 62.18 731.44666666c-36.72-52.74-38.76-120.48-5.64-177C81.68 511.66666666 122.36 484.30666666 168.14 475.78666666 167.54 473.92666666 166.94 472.06666666 166.4 470.14666666 164.84 464.62666666 163.4 459.04666666 162.08 453.46666666s-2.52-11.28-3.6-16.98S156.5 424.96666666 155.72 419.14666666C154.88 413.38666666 154.22 407.50666666 153.68 401.62666666S152.72 389.80666666 152.42 383.80666666C152.12 377.86666665999996 152 371.80666666 152 365.80666666c0-25.92 2.52-51.18 7.32-75.6 4.8-24.36 11.88-47.94 21-70.38 9.06-22.44 20.22-43.74 33.18-63.72 12.96-19.92 27.66-38.58 43.98-55.5 16.26-16.92 34.08-32.28 53.28-45.84 19.14-13.5 39.6-25.08 61.14-34.56s44.16-16.86 67.56-21.84S487.16-9.193333339999981 512-9.193333339999981s49.14 2.64 72.6 7.62c23.46 4.98 46.02 12.36 67.56 21.84s42 21.12 61.2 34.56c19.08 13.56 36.96 28.86 53.28 45.84 16.26 16.92 31.02 35.58 43.86 55.5 12.96 19.98 24.12 41.28 33.24 63.72s16.2 46.02 21 70.38C869.48 314.62666665999996 872 339.88666665999995 872 365.80666666c0 6.06-0.12 12.06-0.42 18-0.3 6-0.78 11.94-1.26 17.82s-1.26 11.76-2.04 17.52-1.74 11.58-2.82 17.28-2.22 11.34-3.6 16.98c-1.26 5.64-2.76 11.22-4.26 16.74-0.54 1.98-1.2 3.84-1.74 5.76 47.7 8.82 89.82 37.74 114.48 83.04C1001.6 616.60666666 997.34 684.22666666 958.88 735.76666666zM917.6 587.68666666c-15.72-28.86-36.36-52.38-81.3-54.72-16.26-0.84-34.56-12.48-37.38-33.12-1.26-9.42 1.74-25.98 2.88-29.28 1.8-5.46 3.6-10.98 5.16-16.56s3-11.28 4.32-16.98 2.46-11.52 3.48-17.34 1.86-11.7 2.52-17.64 1.2-11.94 1.5-17.94 0.54-12.12 0.54-18.3c0-22.2-2.16-43.86-6.24-64.86s-10.14-41.22-17.94-60.48-17.28-37.62-28.38-54.72c-11.1-17.16-23.64-33.12-37.56-47.7-13.86-14.58-29.1-27.78-45.48-39.36s-33.84-21.6-52.2-29.76-37.68-14.52-57.6-18.78C553.88 45.766666660000055 533.18 43.54666666000003 512 43.54666666000003s-41.88 2.22-61.86 6.54c-19.98 4.26-39.3 10.68-57.66 18.78s-35.82 18.18-52.2 29.76S308.72 123.46666665999999 294.8 138.04666666000003s-26.46 30.54-37.5 47.7c-11.1 17.1-20.58 35.46-28.38 54.72-7.74 19.26-13.8 39.48-17.94 60.48-4.08 21-6.24 42.66-6.24 64.86 0 6.18 0.18 12.24 0.54 18.3s0.9 12 1.56 17.94S208.34 413.86666666 209.36 419.68666666s2.16 11.64 3.42 17.34 2.76 11.4 4.32 16.98 4.8 22.56 8.82 33.96C233.9 510.64666666 220.46 532.6666666599999 195.14 532.06666666 147.56 530.9866666600001 124.94 556.42666666 108.32 584.80666666c-16.56 28.32-24.6 72.6 2.82 112.08 22.92 31.92 62.52 48.6 102.54 42.6 39.12-5.58 69.9-30.84 82.98-67.2 9.06-25.2 44.1-15.36 46.62-13.38 118.68 43.44 239.76 42.36 334.38-2.94C692 648.88666666 719.18 647.02666666 726.44 668.92666666c12.18 36.72 41.76 63.06 80.76 69.9 39.84 7.26 79.92-8.1 103.86-39.24C939.8 661.06666666 933.26 616.4866666600001 917.6 587.68666666z"  horiz-adv-x="1024" />

    
    </font>
</defs>
</svg>
